# Made in Blockbench 4.12.0-beta.3
mtllib item.mtl

o cube
v 0.6250000000000002 0.06249999999999911 0.375
v 0.3750000000000002 0.06249999999999911 0.375
v 0.3750000000000002 0.9374999999999991 0.375
v 0.6250000000000002 0.9374999999999991 0.375
v 0.6250000000000002 0.06249999999999911 0.625
v 0.6250000000000002 0.9374999999999991 0.625
v 0.3750000000000002 0.06249999999999911 0.625
v 0.3750000000000002 0.9374999999999991 0.625
vt 0.375 0
vt 0.625 0
vt 0.625 1
vt 0.375 1
vt 0.375 0
vt 0.625 0
vt 0.625 1
vt 0.375 1
vt 0.375 0
vt 0.625 0
vt 0.625 1
vt 0.375 1
vt 0.375 0
vt 0.625 0
vt 0.625 1
vt 0.375 1
vt 0.375 0.375
vt 0.625 0.375
vt 0.625 0.625
vt 0.375 0.625
vt 0.375 0.375
vt 0.625 0.375
vt 0.625 0.625
vt 0.375 0.625
vn 0 0 -1
vn 1 0 0
vn 0 0 1
vn -1 0 0
vn 0 1 0
vn 0 -1 0
usemtl m_afba0bc3-272a-1098-6976-043cfb98ab7a
f 1/1/1 2/2/1 3/3/1 4/4/1
f 5/5/2 1/6/2 4/7/2 6/8/2
f 7/9/3 5/10/3 6/11/3 8/12/3
f 2/13/4 7/14/4 8/15/4 3/16/4
f 8/17/5 6/18/5 4/19/5 3/20/5
f 2/21/6 1/22/6 5/23/6 7/24/6
o spokes
v 0.2670048687763805 0.7499999999999993 1.0624999990704447
v -0.06250000238875342 0.7499999999999994 0.7329951279053109
v 0.49999999761124647 0.7499999999999992 0.4999999990704447
v -0.06250000238875386 0.24999999999999947 0.7329951279053109
v 0.2670048687763803 0.24999999999999933 1.0624999990704447
v 0.49999999761124625 0.24999999999999922 0.4999999990704447
v -0.06250000238875342 0.7499999999999994 0.2670048702355785
v -0.06250000238875386 0.24999999999999947 0.2670048702355785
v 0.2670048687763804 0.7499999999999993 -0.06250000092955532
v 0.2670048687763802 0.24999999999999933 -0.06250000092955532
v 0.7329951264461124 0.7499999999999991 -0.06250000092955532
v 0.7329951264461122 0.2499999999999991 -0.06250000092955532
v 1.0624999976112464 0.749999999999999 0.2670048702355785
v 1.0624999976112461 0.249999999999999 0.2670048702355785
v 1.0624999976112464 0.749999999999999 0.7329951279053109
v 1.0624999976112464 0.249999999999999 0.7329951279053109
v 0.7329951264461129 0.7499999999999991 1.0624999990704447
v 0.7329951264461126 0.2499999999999991 1.0624999990704447
v 0.24999999761124614 0.8124999999999992 0.7499999990704447
v 0.24999999761124614 0.8124999999999992 0.24999999907044468
v 0.7499999976112455 0.8124999999999992 0.24999999907044468
v 0.7499999976112455 0.8124999999999992 0.7499999990704447
v 0.24999999761124592 0.18749999999999928 0.24999999907044468
v 0.24999999761124592 0.18749999999999928 0.7499999990704447
v 0.7499999976112457 0.18749999999999917 0.7499999990704447
v 0.7499999976112457 0.18749999999999917 0.24999999907044468
v 0.2947790292536534 0.7764850656161278 1.2872239904716323
v 0.3699554791297216 0.7764850656161278 1.0487947527845756
v 0.5652652765993398 0.6330909565283666 1.1103756953829456
v 0.4900888267232715 0.6330909565283666 1.3488049330700023
v 0.09644069418084467 0.36690904347163195 0.962555872349699
v 0.02126424430477636 0.36690904347163195 1.2009851100367557
v 0.21657404177439465 0.2235149343838706 1.262566052635126
v 0.29175049165046285 0.2235149343838706 1.0241368149480692
v 0.6467018707721031 0.7764850656161278 1.3001973615394424
v 0.6140703227170902 0.7764850656161278 1.05233614619599
v 0.8171063439656331 0.6330909565283664 1.0256059468984116
v 0.849737892020646 0.6330909565283664 1.2734671622418643
v 0.3297356175044166 0.36690904347163206 1.0897695202880142
v 0.3623671655594294 0.36690904347163206 1.337630735631467
v 0.5654031868079724 0.2235149343838706 1.3109005363338886
v 0.5327716387529595 0.2235149343838706 1.063039320990436
v 0.9996161707868552 0.7764850656161278 1.142044341770078
v 0.8562220616990935 0.7764850656161278 0.9372563306978303
v 1.0239745796148019 0.6330909565283666 0.8197947530995919
v 1.1673686887025634 0.6330909565283666 1.0245827641718397
v 0.6212989065026165 0.366909043471632 1.1017512948664132
v 0.7646930155903782 0.366909043471632 1.3065393059386612
v 0.9324455335060865 0.2235149343838706 1.1890777283404226
v 0.7890514244183249 0.2235149343838706 0.9842897172681747
v 1.2396280405260125 0.7764850656161276 0.8388032113121782
v 1.0178753322314569 0.7764850656161276 0.7233660580034199
v 1.1124359123512277 0.6330909565283664 0.5417168736773146
v 1.3341886206457834 0.6330909565283664 0.6571540269860727
v 0.885451270196763 0.3669090434716319 0.9777503143529883
v 1.1072039784913186 0.3669090434716318 1.0931874676617466
v 1.2017645586110894 0.22351493438387043 0.9115382833356411
v 0.9800118503165339 0.22351493438387043 0.7961011300268829
v 1.3124999976112457 0.7780103124965735 0.4710990277103494
v 1.062499997611246 0.7780103124965735 0.4710990277103494
v 1.062499997611246 0.6436854104098677 0.2602511662571283
v 1.312499997611246 0.6436854104098678 0.2602511662571283
v 1.062499997611246 0.35631458959013074 0.7397488318837613
v 1.3124999976112457 0.35631458959013074 0.7397488318837613
v 1.312499997611246 0.22198968750342485 0.5289009704305402
v 1.062499997611246 0.22198968750342485 0.5289009704305401
v 1.1831455864102831 0.7764850656161278 0.05824286783693372
v 0.9666392354641736 0.7764850656161278 0.18324286783693394
v 0.8642452299280498 0.6330909565283664 0.005891247857878867
v 1.0807515808741592 0.6330909565283664 -0.11910875214212135
v 1.1100333445519357 0.3669090434716322 0.43160875028301093
v 1.326539695498045 0.3669090434716322 0.3066087502830107
v 1.224145689961921 0.2235149343838707 0.12925713030395558
v 1.0076393390158116 0.2235149343838707 0.2542571303039558
v -0.30727589497707064 0.7764850656161276 0.3992880745680202
v -0.06107395672401861 0.7764850656161276 0.44270011898475314
v -0.0966350216547498 0.6330909565283661 0.6443769400126522
v -0.34283695990780183 0.6330909565283661 0.6009648955959193
v -0.011273705261492628 0.3669090434716322 0.1602688582529409
v -0.25747564351454466 0.3669090434716322 0.11685681383620794
v -0.29303670844527585 0.22351493438387054 0.3185336348641072
v -0.04683477019222382 0.22351493438387054 0.36194567928084015
v -0.14876547098178183 0.7764850656161278 0.009142967693166415
v 0.04274563979796275 0.7764850656161278 0.16983987011480123
v -0.08888955633162765 0.6330909565283663 0.32671658801408415
v -0.28040066711137235 0.6330909565283663 0.16601968559244928
v 0.227089553045269 0.3669090434716322 -0.049852650770551565
v 0.035578442265524535 0.3669090434716322 -0.21054955319218638
v -0.09605675386406598 0.22351493438387066 -0.053672835292903454
v 0.0954543569156785 0.22351493438387066 0.10702406712873141
v 0.9019767927801464 0.7764850656161278 -0.20728489023299923
v 0.7676518906934404 0.7764850656161278 0.0035629712202221997
v 0.5949354339500724 0.6330909565283663 -0.10646954692302146
v 0.7292603360367784 0.6330909565283663 -0.3173174083762429
v 1.0095266206625964 0.3669090434716322 0.15765416852441433
v 1.1438515227493022 0.3669090434716322 -0.053193692928807046
v 0.9711350660059342 0.2235149343838707 -0.16322621107205082
v 0.8368101639192282 0.2235149343838707 0.047621650381170666
v 0.5299699528143639 0.7764850656161278 -0.31298158760687256
v 0.5081810171274493 0.7764850656161278 -0.06393291308393612
v 0.30417228626452264 0.6330909565283664 -0.08178136429475358
v 0.3259612219514372 0.6330909565283664 -0.3308300388176899
v 0.7938779195490845 0.3669090434716322 -0.03893767291757089
v 0.8156668552359991 0.36690904347163233 -0.28798634744050733
v 0.6116581243730723 0.2235149343838707 -0.3058347986513248
v 0.5898691886861577 0.2235149343838707 -0.05678612412838835
v 0.15119055231240874 0.7764850656161278 -0.23496206074051085
v 0.24686141040368126 0.7764850656161278 -0.003992177612689107
v 0.05766195847033695 0.6330909565283663 0.07437680137165859
v -0.038008899620935566 0.6330909565283663 -0.15659308175616315
v 0.5118191753414285 0.3669090434716322 -0.11374127730596673
v 0.4161483172501561 0.3669090434716322 -0.34471116043378847
v 0.2269488653168118 0.22351493438387066 -0.26634218144944066
v 0.3226197234080842 0.22351493438387066 -0.03537229832161892
v -0.2625660559534353 0.7764850656161278 0.7834259549072963
v -0.02413681826637859 0.7764850656161278 0.708249505031228
v 0.037444124331991624 0.6330909565283664 0.9035593025008459
v -0.20098511335506508 0.6330909565283664 0.9787357523769142
v -0.11037569870125519 0.3669090434716322 0.4347347200823507
v -0.3488049363883119 0.3669090434716322 0.509911169958419
v -0.2872239937899417 0.22351493438387066 0.7052209674280371
v -0.04879475610288497 0.22351493438387066 0.6300445175519689
v -0.04553281085211025 0.7764850656161278 1.1035157100352284
v 0.13124388444452673 0.7764850656161278 0.9267390147385914
v 0.2760508757794188 0.6330909565283666 1.0715460060734834
v 0.09927418048278192 0.6330909565283666 1.2483227013701204
v -0.07154600939179279 0.366909043471632 0.7239491209022721
v -0.24832270468842954 0.366909043471632 0.9007258161989089
v -0.1035157133535376 0.2235149343838706 1.045532807533801
v 0.07326098194309938 0.2235149343838706 0.8687561122371641
v 0.7278196607831303 0.7918335411122494 -0.09591852334191808
v 0.6606572097397774 0.7918335411122494 0.009505407384692632
v 0.5742989813680934 0.7201364865683687 -0.045510851686929144
v 0.6414614324114465 0.7201364865683687 -0.15093478241353986
v 0.9630006222012224 0.27986351343162985 0.20211940401493278
v 1.0301630732445752 0.27986351343162985 0.09669547328832206
v 0.9438048448728914 0.2081664588877491 0.04167921421670029
v 0.8766423938295385 0.2081664588877491 0.147103144943311
v 0.42691395553074174 0.7918335411122495 -0.13378159953817026
v 0.4160194876872845 0.7918335411122495 -0.009257262276701983
v 0.3140151222558213 0.7201364865683688 -0.018181487882110714
v 0.32490959009927856 0.7201364865683688 -0.14270582514357888
v 0.7731406157143285 0.27986351343162985 0.02198678793125447
v 0.7840350835577857 0.27986351343162985 -0.10253754933021375
v 0.6820307181263225 0.2081664588877492 -0.11146177493562248
v 0.6711362502828652 0.2081664588877492 0.013062562325845795
v 0.1425241122803086 0.7918335411122494 -0.028423766186897903
v 0.1903595413259448 0.7918335411122494 0.08706117537701297
v 0.0957598153592728 0.7201364865683687 0.12624566486918676
v 0.0479243863136366 0.7201364865683687 0.010760723305275888
v 0.5215567474981291 0.27986351343162974 -0.05012519923958403
v 0.47372131845249277 0.2798635134316298 -0.1656101408034949
v 0.37912159248582067 0.20816645888774904 -0.1264256513113211
v 0.42695702153145687 0.20816645888774904 -0.010940709747410127
v -0.061083926085284235 0.7918335411122494 0.19634638909488245
v 0.03467162930458789 0.7918335411122494 0.2766948403056998
v -0.031145968760207365 0.7201364865683687 0.3551331992553412
v -0.1269015241500795 0.7201364865683687 0.2747847480445238
v 0.26510152086372085 0.27986351343162985 0.0020791891990088462
v 0.1693459654738485 0.27986351343162985 -0.07826926201180862
v 0.10352836740905336 0.2081664588877491 0.00016909693783284663
v 0.1992839227989256 0.2081664588877491 0.0805175481486502
v -0.13773973895278036 0.7918335411122491 0.5175702207290214
v -0.014638769826254228 0.7918335411122491 0.5392762429373879
v -0.032419302291619934 0.7201364865683685 0.6401146534513372
v -0.15552027141814584 0.7201364865683685 0.6184086312429707
v 0.0476115445019033 0.27986351343162985 0.1862371670226225
v -0.07548942462462271 0.27986351343162985 0.16453114481425601
v -0.0932699570899882 0.20816645888774904 0.2653695553282055
v 0.029831012036537707 0.20816645888774904 0.287075577536572
v -0.05756903198419061 0.7918335411122494 0.8100604149862592
v 0.06164558685933774 0.7918335411122494 0.7724721900482252
v 0.09243605815852285 0.7201364865683687 0.8701270887830341
v -0.026778560685005504 0.7201364865683687 0.9077153137210682
v -0.04615301368425806 0.2798635134316298 0.43057870886212857
v -0.1653676325277864 0.2798635134316298 0.4681669338001627
v -0.1345771612286013 0.20816645888774915 0.5658218325349716
v -0.015362542385072953 0.20816645888774915 0.5282336075969375
v 0.14860019518363043 0.7918335411122494 1.0324836731260136
v 0.23698854283194892 0.7918335411122494 0.9440953254776951
v 0.3093920384993949 0.7201364865683689 1.0164988211451411
v 0.2210036908510764 0.7201364865683689 1.1048871687934596
v -0.016498824463450523 0.2798635134316296 0.6906079581822959
v -0.10488717211176879 0.27986351343162963 0.7789963058306144
v -0.03248367644432282 0.20816645888774898 0.8513998014980604
v 0.05590467120399556 0.20816645888774898 0.7630114538497419
v 0.43417816414671884 0.7918335411122495 1.134577157910292
v 0.471766389084753 0.7918335411122495 1.0153625390667635
v 0.5694212878195619 0.7201364865683689 1.0461530103659487
v 0.5318330628815278 0.7201364865683689 1.165367629209477
v 0.1298729078986567 0.2798635134316296 0.9075639385231677
v 0.09228468296062253 0.2798635134316296 1.0267785573666963
v 0.18993958169543157 0.20816645888774893 1.0575690286658812
v 0.2275278066334656 0.20816645888774893 0.9383544098223529
v 0.7085290531945634 0.7918335411122494 1.1029397284459554
v 0.692213279167057 0.7918335411122494 0.9790091207742291
v 0.7937312897913283 0.7201364865683688 0.96564402112544
v 0.8100470638188347 0.7201364865683688 1.0895746287971664
v 0.33679489765121495 0.27986351343162963 1.0258008383892596
v 0.35311067167872134 0.27986351343162963 1.149731446060986
v 0.4546286823029927 0.20816645888774898 1.136366346412197
v 0.4383129082754862 0.20816645888774898 1.0124357387404705
v 0.9633741128495207 0.7918335411122496 0.9385260685452598
v 0.8916770583056399 0.7918335411122496 0.8361320630091358
v 0.9755533172634939 0.7201364865683689 0.7774012742100167
v 1.0472503718073747 0.7201364865683689 0.8797952797461406
v 0.5980231143100436 0.27986351343162963 1.0417507682198643
v 0.6697201688539245 0.27986351343162963 1.1441447737559884
v 0.7535964278117785 0.20816645888774898 1.0854139849568691
v 0.6818993732678977 0.20816645888774898 0.9830199794207453
v 1.1135066620893752 0.7918335411122494 0.675015018205387
v 1.0026303079420975 0.7918335411122494 0.6172964415510079
v 1.049910598001983 0.7201364865683688 0.5264718493879553
v 1.1607869521492606 0.7201364865683688 0.5841904260423344
v 0.83710023039873 0.2798635134316295 0.9352767619879685
v 0.9479765845460079 0.27986351343162946 0.9929953386423476
v 0.9952568746058933 0.20816645888774887 0.9021707464792948
v 0.8843805204586155 0.20816645888774893 0.8444521698249158
v 1.124999997611246 0.7971410523382024 0.3848058368253675
v 0.9999999976112458 0.7971410523382024 0.3848058368253675
v 0.9999999976112458 0.7299786012948496 0.27938190609875707
v 1.124999997611246 0.7299786012948496 0.2793819060987571
v 0.9999999976112458 0.27002139870514885 0.7206180920421325
v 1.124999997611246 0.2700213987051489 0.7206180920421325
v 1.124999997611246 0.20285894766179602 0.615194161315522
v 0.9999999976112458 0.20285894766179602 0.615194161315522
v 0.9772430581806997 0.7918335411122494 0.07660922753641042
v 0.868989882707645 0.7918335411122494 0.13910922753641053
v 0.817792879939583 0.7201364865683688 0.050433417546883075
v 0.9260460554126378 0.7201364865683688 -0.01206658245311698
v 1.0482325190673474 0.27986351343162985 0.4495665805940068
v 1.1564856945404023 0.27986351343162985 0.38706658059400667
v 1.1052886917723403 0.20816645888774915 0.29839077060447916
v 0.9970355162992856 0.20816645888774915 0.36089077060447927
vt 0.9296875 0.9375
vt 0.6953125 0.9375
vt 0.8125 0.65625
vt 0.6953125 0.90625
vt 0.9296875 0.90625
vt 0.9296875 0.9375
vt 0.6953125 0.9375
vt 0.9296875 0.9375
vt 0.6953125 0.9375
vt 0.8125 0.65625
vt 0.9296875 0.9375
vt 0.6953125 0.9375
vt 0.8125 0.65625
vt 0.6953125 0.90625
vt 0.9296875 0.90625
vt 0.9296875 0.9375
vt 0.6953125 0.9375
vt 0.9296875 0.9375
vt 0.6953125 0.9375
vt 0.8125 0.65625
vt 0.9296875 0.9375
vt 0.6953125 0.9375
vt 0.8125 0.65625
vt 0.6953125 0.90625
vt 0.9296875 0.90625
vt 0.9296875 0.9375
vt 0.6953125 0.9375
vt 0.9296875 0.9375
vt 0.6953125 0.9375
vt 0.8125 0.65625
vt 0.9296875 0.9375
vt 0.6953125 0.9375
vt 0.8125 0.65625
vt 0.6953125 0.90625
vt 0.9296875 0.90625
vt 0.9296875 0.9375
vt 0.6953125 0.9375
vt 0.9296875 0.9375
vt 0.6953125 0.9375
vt 0.8125 0.65625
vt 0.9296875 0.9375
vt 0.6953125 0.9375
vt 0.8125 0.65625
vt 0.6953125 0.90625
vt 0.9296875 0.90625
vt 0.9296875 0.9375
vt 0.6953125 0.9375
vt 0.9296875 0.9375
vt 0.6953125 0.9375
vt 0.8125 0.65625
vt 0.9296875 0.9375
vt 0.6953125 0.9375
vt 0.8125 0.65625
vt 0.6953125 0.90625
vt 0.9296875 0.90625
vt 0.9296875 0.9375
vt 0.6953125 0.9375
vt 0.9296875 0.9375
vt 0.6953125 0.9375
vt 0.8125 0.65625
vt 0.9296875 0.9375
vt 0.6953125 0.9375
vt 0.8125 0.65625
vt 0.6953125 0.90625
vt 0.9296875 0.90625
vt 0.9296875 0.9375
vt 0.6953125 0.9375
vt 0.9296875 0.9375
vt 0.6953125 0.9375
vt 0.8125 0.65625
vt 0.9296875 0.9375
vt 0.6953125 0.9375
vt 0.8125 0.65625
vt 0.6953125 0.90625
vt 0.9296875 0.90625
vt 0.9296875 0.9375
vt 0.6953125 0.9375
vt 0.9296875 0.9375
vt 0.6953125 0.9375
vt 0.8125 0.65625
vt 0.9375 0.0625
vt 0.9375 0.3125
vt 0.6875 0.3125
vt 0.6875 0.0625
vt 0.9375 0.0625
vt 0.9375 0.3125
vt 0.6875 0.3125
vt 0.6875 0.0625
vt 0.5625 0.34375
vt 0.625 0.34375
vt 0.625 0.375
vt 0.5625 0.375
vt 0.5625 0.34375
vt 0.625 0.34375
vt 0.625 0.375
vt 0.5625 0.375
vt 0.5625 0.34375
vt 0.625 0.34375
vt 0.625 0.375
vt 0.5625 0.375
vt 0.5625 0.34375
vt 0.625 0.34375
vt 0.625 0.375
vt 0.5625 0.375
vt 0.90625 0.09375
vt 0.90625 0.28125
vt 0.71875 0.28125
vt 0.71875 0.09375
vt 0.90625 0.09375
vt 0.90625 0.28125
vt 0.71875 0.28125
vt 0.71875 0.09375
vt 0.03125 0
vt 0.25 0
vt 0.25 0.4375
vt 0.03125 0.4375
vt 0.03125 0
vt 0.25 0
vt 0.25 0.4375
vt 0.03125 0.4375
vt 0.03125 0
vt 0.25 0
vt 0.25 0.4375
vt 0.03125 0.4375
vt 0.03125 0
vt 0.25 0
vt 0.25 0.4375
vt 0.03125 0.4375
vt 0.90625 0.09375
vt 0.90625 0.28125
vt 0.71875 0.28125
vt 0.71875 0.09375
vt 0.90625 0.09375
vt 0.90625 0.28125
vt 0.71875 0.28125
vt 0.71875 0.09375
vt 0.03125 0
vt 0.25 0
vt 0.25 0.4375
vt 0.03125 0.4375
vt 0.03125 0
vt 0.25 0
vt 0.25 0.4375
vt 0.03125 0.4375
vt 0.03125 0
vt 0.25 0
vt 0.25 0.4375
vt 0.03125 0.4375
vt 0.03125 0
vt 0.25 0
vt 0.25 0.4375
vt 0.03125 0.4375
vt 0.90625 0.09375
vt 0.90625 0.28125
vt 0.71875 0.28125
vt 0.71875 0.09375
vt 0.90625 0.09375
vt 0.90625 0.28125
vt 0.71875 0.28125
vt 0.71875 0.09375
vt 0.03125 0
vt 0.25 0
vt 0.25 0.4375
vt 0.03125 0.4375
vt 0.03125 0
vt 0.25 0
vt 0.25 0.4375
vt 0.03125 0.4375
vt 0.03125 0
vt 0.25 0
vt 0.25 0.4375
vt 0.03125 0.4375
vt 0.03125 0
vt 0.25 0
vt 0.25 0.4375
vt 0.03125 0.4375
vt 0.90625 0.09375
vt 0.90625 0.28125
vt 0.71875 0.28125
vt 0.71875 0.09375
vt 0.90625 0.09375
vt 0.90625 0.28125
vt 0.71875 0.28125
vt 0.71875 0.09375
vt 0.03125 0
vt 0.25 0
vt 0.25 0.4375
vt 0.03125 0.4375
vt 0.03125 0
vt 0.25 0
vt 0.25 0.4375
vt 0.03125 0.4375
vt 0.03125 0
vt 0.25 0
vt 0.25 0.4375
vt 0.03125 0.4375
vt 0.03125 0
vt 0.25 0
vt 0.25 0.4375
vt 0.03125 0.4375
vt 0.90625 0.09375
vt 0.90625 0.28125
vt 0.71875 0.28125
vt 0.71875 0.09375
vt 0.90625 0.09375
vt 0.90625 0.28125
vt 0.71875 0.28125
vt 0.71875 0.09375
vt 0.03125 0
vt 0.25 0
vt 0.25 0.4375
vt 0.03125 0.4375
vt 0.03125 0
vt 0.25 0
vt 0.25 0.4375
vt 0.03125 0.4375
vt 0.03125 0
vt 0.25 0
vt 0.25 0.4375
vt 0.03125 0.4375
vt 0.03125 0
vt 0.25 0
vt 0.25 0.4375
vt 0.03125 0.4375
vt 0.90625 0.09375
vt 0.90625 0.28125
vt 0.71875 0.28125
vt 0.71875 0.09375
vt 0.90625 0.09375
vt 0.90625 0.28125
vt 0.71875 0.28125
vt 0.71875 0.09375
vt 0.03125 0
vt 0.25 0
vt 0.25 0.4375
vt 0.03125 0.4375
vt 0.03125 0
vt 0.25 0
vt 0.25 0.4375
vt 0.03125 0.4375
vt 0.03125 0
vt 0.25 0
vt 0.25 0.4375
vt 0.03125 0.4375
vt 0.03125 0
vt 0.25 0
vt 0.25 0.4375
vt 0.03125 0.4375
vt 0.90625 0.09375
vt 0.90625 0.28125
vt 0.71875 0.28125
vt 0.71875 0.09375
vt 0.90625 0.09375
vt 0.90625 0.28125
vt 0.71875 0.28125
vt 0.71875 0.09375
vt 0.03125 0
vt 0.25 0
vt 0.25 0.4375
vt 0.03125 0.4375
vt 0.03125 0
vt 0.25 0
vt 0.25 0.4375
vt 0.03125 0.4375
vt 0.03125 0
vt 0.25 0
vt 0.25 0.4375
vt 0.03125 0.4375
vt 0.03125 0
vt 0.25 0
vt 0.25 0.4375
vt 0.03125 0.4375
vt 0.90625 0.09375
vt 0.90625 0.28125
vt 0.71875 0.28125
vt 0.71875 0.09375
vt 0.90625 0.09375
vt 0.90625 0.28125
vt 0.71875 0.28125
vt 0.71875 0.09375
vt 0.03125 0
vt 0.25 0
vt 0.25 0.4375
vt 0.03125 0.4375
vt 0.03125 0
vt 0.25 0
vt 0.25 0.4375
vt 0.03125 0.4375
vt 0.03125 0
vt 0.25 0
vt 0.25 0.4375
vt 0.03125 0.4375
vt 0.03125 0
vt 0.25 0
vt 0.25 0.4375
vt 0.03125 0.4375
vt 0.90625 0.09375
vt 0.90625 0.28125
vt 0.71875 0.28125
vt 0.71875 0.09375
vt 0.90625 0.09375
vt 0.90625 0.28125
vt 0.71875 0.28125
vt 0.71875 0.09375
vt 0.03125 0
vt 0.25 0
vt 0.25 0.4375
vt 0.03125 0.4375
vt 0.03125 0
vt 0.25 0
vt 0.25 0.4375
vt 0.03125 0.4375
vt 0.03125 0
vt 0.25 0
vt 0.25 0.4375
vt 0.03125 0.4375
vt 0.03125 0
vt 0.25 0
vt 0.25 0.4375
vt 0.03125 0.4375
vt 0.90625 0.09375
vt 0.90625 0.28125
vt 0.71875 0.28125
vt 0.71875 0.09375
vt 0.90625 0.09375
vt 0.90625 0.28125
vt 0.71875 0.28125
vt 0.71875 0.09375
vt 0.03125 0
vt 0.25 0
vt 0.25 0.4375
vt 0.03125 0.4375
vt 0.03125 0
vt 0.25 0
vt 0.25 0.4375
vt 0.03125 0.4375
vt 0.03125 0
vt 0.25 0
vt 0.25 0.4375
vt 0.03125 0.4375
vt 0.03125 0
vt 0.25 0
vt 0.25 0.4375
vt 0.03125 0.4375
vt 0.90625 0.09375
vt 0.90625 0.28125
vt 0.71875 0.28125
vt 0.71875 0.09375
vt 0.90625 0.09375
vt 0.90625 0.28125
vt 0.71875 0.28125
vt 0.71875 0.09375
vt 0.03125 0
vt 0.25 0
vt 0.25 0.4375
vt 0.03125 0.4375
vt 0.03125 0
vt 0.25 0
vt 0.25 0.4375
vt 0.03125 0.4375
vt 0.03125 0
vt 0.25 0
vt 0.25 0.4375
vt 0.03125 0.4375
vt 0.03125 0
vt 0.25 0
vt 0.25 0.4375
vt 0.03125 0.4375
vt 0.90625 0.09375
vt 0.90625 0.28125
vt 0.71875 0.28125
vt 0.71875 0.09375
vt 0.90625 0.09375
vt 0.90625 0.28125
vt 0.71875 0.28125
vt 0.71875 0.09375
vt 0.03125 0
vt 0.25 0
vt 0.25 0.4375
vt 0.03125 0.4375
vt 0.03125 0
vt 0.25 0
vt 0.25 0.4375
vt 0.03125 0.4375
vt 0.03125 0
vt 0.25 0
vt 0.25 0.4375
vt 0.03125 0.4375
vt 0.03125 0
vt 0.25 0
vt 0.25 0.4375
vt 0.03125 0.4375
vt 0.90625 0.09375
vt 0.90625 0.28125
vt 0.71875 0.28125
vt 0.71875 0.09375
vt 0.90625 0.09375
vt 0.90625 0.28125
vt 0.71875 0.28125
vt 0.71875 0.09375
vt 0.03125 0
vt 0.25 0
vt 0.25 0.4375
vt 0.03125 0.4375
vt 0.03125 0
vt 0.25 0
vt 0.25 0.4375
vt 0.03125 0.4375
vt 0.03125 0
vt 0.25 0
vt 0.25 0.4375
vt 0.03125 0.4375
vt 0.03125 0
vt 0.25 0
vt 0.25 0.4375
vt 0.03125 0.4375
vt 0.875 0.125
vt 0.875 0.25
vt 0.75 0.25
vt 0.75 0.125
vt 0.875 0.125
vt 0.875 0.25
vt 0.75 0.25
vt 0.75 0.125
vt 0.75 0.125
vt 0.875 0.125
vt 0.875 0.25
vt 0.75 0.25
vt 0.75 0.125
vt 0.875 0.125
vt 0.875 0.25
vt 0.75 0.25
vt 0.75 0.125
vt 0.875 0.125
vt 0.875 0.25
vt 0.75 0.25
vt 0.75 0.125
vt 0.875 0.125
vt 0.875 0.25
vt 0.75 0.25
vt 0.875 0.125
vt 0.875 0.25
vt 0.75 0.25
vt 0.75 0.125
vt 0.875 0.125
vt 0.875 0.25
vt 0.75 0.25
vt 0.75 0.125
vt 0.75 0.125
vt 0.875 0.125
vt 0.875 0.25
vt 0.75 0.25
vt 0.75 0.125
vt 0.875 0.125
vt 0.875 0.25
vt 0.75 0.25
vt 0.75 0.125
vt 0.875 0.125
vt 0.875 0.25
vt 0.75 0.25
vt 0.75 0.125
vt 0.875 0.125
vt 0.875 0.25
vt 0.75 0.25
vt 0.875 0.125
vt 0.875 0.25
vt 0.75 0.25
vt 0.75 0.125
vt 0.875 0.125
vt 0.875 0.25
vt 0.75 0.25
vt 0.75 0.125
vt 0.75 0.125
vt 0.875 0.125
vt 0.875 0.25
vt 0.75 0.25
vt 0.75 0.125
vt 0.875 0.125
vt 0.875 0.25
vt 0.75 0.25
vt 0.75 0.125
vt 0.875 0.125
vt 0.875 0.25
vt 0.75 0.25
vt 0.75 0.125
vt 0.875 0.125
vt 0.875 0.25
vt 0.75 0.25
vt 0.875 0.125
vt 0.875 0.25
vt 0.75 0.25
vt 0.75 0.125
vt 0.875 0.125
vt 0.875 0.25
vt 0.75 0.25
vt 0.75 0.125
vt 0.75 0.125
vt 0.875 0.125
vt 0.875 0.25
vt 0.75 0.25
vt 0.75 0.125
vt 0.875 0.125
vt 0.875 0.25
vt 0.75 0.25
vt 0.75 0.125
vt 0.875 0.125
vt 0.875 0.25
vt 0.75 0.25
vt 0.75 0.125
vt 0.875 0.125
vt 0.875 0.25
vt 0.75 0.25
vt 0.875 0.125
vt 0.875 0.25
vt 0.75 0.25
vt 0.75 0.125
vt 0.875 0.125
vt 0.875 0.25
vt 0.75 0.25
vt 0.75 0.125
vt 0.75 0.125
vt 0.875 0.125
vt 0.875 0.25
vt 0.75 0.25
vt 0.75 0.125
vt 0.875 0.125
vt 0.875 0.25
vt 0.75 0.25
vt 0.75 0.125
vt 0.875 0.125
vt 0.875 0.25
vt 0.75 0.25
vt 0.75 0.125
vt 0.875 0.125
vt 0.875 0.25
vt 0.75 0.25
vt 0.875 0.125
vt 0.875 0.25
vt 0.75 0.25
vt 0.75 0.125
vt 0.875 0.125
vt 0.875 0.25
vt 0.75 0.25
vt 0.75 0.125
vt 0.75 0.125
vt 0.875 0.125
vt 0.875 0.25
vt 0.75 0.25
vt 0.75 0.125
vt 0.875 0.125
vt 0.875 0.25
vt 0.75 0.25
vt 0.75 0.125
vt 0.875 0.125
vt 0.875 0.25
vt 0.75 0.25
vt 0.75 0.125
vt 0.875 0.125
vt 0.875 0.25
vt 0.75 0.25
vt 0.875 0.125
vt 0.875 0.25
vt 0.75 0.25
vt 0.75 0.125
vt 0.875 0.125
vt 0.875 0.25
vt 0.75 0.25
vt 0.75 0.125
vt 0.75 0.125
vt 0.875 0.125
vt 0.875 0.25
vt 0.75 0.25
vt 0.75 0.125
vt 0.875 0.125
vt 0.875 0.25
vt 0.75 0.25
vt 0.75 0.125
vt 0.875 0.125
vt 0.875 0.25
vt 0.75 0.25
vt 0.75 0.125
vt 0.875 0.125
vt 0.875 0.25
vt 0.75 0.25
vt 0.875 0.125
vt 0.875 0.25
vt 0.75 0.25
vt 0.75 0.125
vt 0.875 0.125
vt 0.875 0.25
vt 0.75 0.25
vt 0.75 0.125
vt 0.75 0.125
vt 0.875 0.125
vt 0.875 0.25
vt 0.75 0.25
vt 0.75 0.125
vt 0.875 0.125
vt 0.875 0.25
vt 0.75 0.25
vt 0.75 0.125
vt 0.875 0.125
vt 0.875 0.25
vt 0.75 0.25
vt 0.75 0.125
vt 0.875 0.125
vt 0.875 0.25
vt 0.75 0.25
vt 0.875 0.125
vt 0.875 0.25
vt 0.75 0.25
vt 0.75 0.125
vt 0.875 0.125
vt 0.875 0.25
vt 0.75 0.25
vt 0.75 0.125
vt 0.75 0.125
vt 0.875 0.125
vt 0.875 0.25
vt 0.75 0.25
vt 0.75 0.125
vt 0.875 0.125
vt 0.875 0.25
vt 0.75 0.25
vt 0.75 0.125
vt 0.875 0.125
vt 0.875 0.25
vt 0.75 0.25
vt 0.75 0.125
vt 0.875 0.125
vt 0.875 0.25
vt 0.75 0.25
vt 0.875 0.125
vt 0.875 0.25
vt 0.75 0.25
vt 0.75 0.125
vt 0.875 0.125
vt 0.875 0.25
vt 0.75 0.25
vt 0.75 0.125
vt 0.75 0.125
vt 0.875 0.125
vt 0.875 0.25
vt 0.75 0.25
vt 0.75 0.125
vt 0.875 0.125
vt 0.875 0.25
vt 0.75 0.25
vt 0.75 0.125
vt 0.875 0.125
vt 0.875 0.25
vt 0.75 0.25
vt 0.75 0.125
vt 0.875 0.125
vt 0.875 0.25
vt 0.75 0.25
vt 0.875 0.125
vt 0.875 0.25
vt 0.75 0.25
vt 0.75 0.125
vt 0.875 0.125
vt 0.875 0.25
vt 0.75 0.25
vt 0.75 0.125
vt 0.75 0.125
vt 0.875 0.125
vt 0.875 0.25
vt 0.75 0.25
vt 0.75 0.125
vt 0.875 0.125
vt 0.875 0.25
vt 0.75 0.25
vt 0.75 0.125
vt 0.875 0.125
vt 0.875 0.25
vt 0.75 0.25
vt 0.75 0.125
vt 0.875 0.125
vt 0.875 0.25
vt 0.75 0.25
vt 0.875 0.125
vt 0.875 0.25
vt 0.75 0.25
vt 0.75 0.125
vt 0.875 0.125
vt 0.875 0.25
vt 0.75 0.25
vt 0.75 0.125
vt 0.75 0.125
vt 0.875 0.125
vt 0.875 0.25
vt 0.75 0.25
vt 0.75 0.125
vt 0.875 0.125
vt 0.875 0.25
vt 0.75 0.25
vt 0.75 0.125
vt 0.875 0.125
vt 0.875 0.25
vt 0.75 0.25
vt 0.75 0.125
vt 0.875 0.125
vt 0.875 0.25
vt 0.75 0.25
vt 0.875 0.125
vt 0.875 0.25
vt 0.75 0.25
vt 0.75 0.125
vt 0.875 0.125
vt 0.875 0.25
vt 0.75 0.25
vt 0.75 0.125
vt 0.75 0.125
vt 0.875 0.125
vt 0.875 0.25
vt 0.75 0.25
vt 0.75 0.125
vt 0.875 0.125
vt 0.875 0.25
vt 0.75 0.25
vt 0.75 0.125
vt 0.875 0.125
vt 0.875 0.25
vt 0.75 0.25
vt 0.75 0.125
vt 0.875 0.125
vt 0.875 0.25
vt 0.75 0.25
vn 3.7781403928824067e-16 1 -4.087728302743274e-17
vn -0.7071067811865475 6.551882292532948e-16 0.7071067811865477
vn -4.373766055839945e-16 -1 1.6205660257984896e-17
vn 3.9474596431116685e-16 1 0
vn -1 8.881784197001252e-16 0
vn -4.440892098500625e-16 -1 0
vn 3.7781403928824067e-16 1 4.087728302743264e-17
vn -0.7071067811865476 3.5737539777452442e-16 -0.7071067811865476
vn -4.373766055839945e-16 -1 -1.6205660257984776e-17
vn 4.765005303660322e-16 1 -4.7024165338530444e-32
vn 0 0 -1
vn -4.765005303660322e-16 -1 4.7024165338530444e-32
vn 3.7781403928824067e-16 1 -4.087728302743274e-17
vn 0.7071067811865475 -2.9781283147877034e-16 -0.7071067811865477
vn -3.7781403928824067e-16 -1 4.087728302743274e-17
vn 3.9474596431116685e-16 1 0
vn 1 0 0
vn -3.9474596431116675e-16 -1 1.8809666135412164e-31
vn 3.778140392882408e-16 1 4.087728302743238e-17
vn 0.7071067811865479 -2.9781283147877053e-16 0.7071067811865471
vn -3.7781403928824067e-16 -1 -4.087728302743246e-17
vn 4.765005303660319e-16 1 -1.8809666135412164e-31
vn 0 0 1
vn -4.765005303660319e-16 -1 1.8809666135412164e-31
vn 0 1 0
vn -2.220446049250314e-16 -1 0
vn -1 3.552713678800501e-16 0
vn 1 3.552713678800501e-16 0
vn 0 0 1
vn 0 0 -1
vn 0.5470295698977542 0.8191520442889918 0.17247776086975294
vn -0.547029569897754 -0.8191520442889919 -0.17247776086975317
vn -0.781239189878474 0.5735764363510459 -0.24632377039348083
vn 0.7812391898784741 -0.5735764363510456 0.2463237703934812
vn -0.3007057995042727 -3.8857805861880553e-16 0.953716950748227
vn 0.30070579950427334 2.0816681711721716e-17 -0.9537169507482268
vn 0.5686694104253474 0.8191520442889917 -0.07486674818404888
vn -0.5686694104253472 -0.8191520442889917 0.0748667481840485
vn -0.8121440849941729 0.5735764363510462 0.10692079719031318
vn 0.8121440849941729 -0.5735764363510462 -0.10692079719031308
vn 0.13052619222005132 3.8857805861880533e-16 0.9914448613738105
vn -0.13052619222005107 -5.55111512312579e-17 -0.9914448613738105
vn 0.46984631039295394 0.819152044288992 -0.328989928337166
vn -0.46984631039295416 -0.8191520442889918 0.3289899283371657
vn -0.671010071662834 0.5735764363510462 0.4698463103929547
vn 0.6710100716628343 -0.5735764363510458 -0.46984631039295455
vn 0.5735764363510467 3.3306690738754765e-16 0.8191520442889916
vn -0.5735764363510465 5.55111512312579e-17 -0.8191520442889915
vn 0.2648481240693875 0.8191520442889919 -0.5087685126991368
vn -0.26484812406938796 -0.8191520442889918 0.5087685126991368
vn -0.3782423204790842 0.5735764363510463 0.7265967373044225
vn 0.37824232047908396 -0.5735764363510459 -0.7265967373044229
vn 0.8870108331782223 -3.3306690738754755e-16 0.46174861323503286
vn -0.8870108331782222 1.2490009027033026e-16 -0.4617486132350331
vn 0 0.8433914458128857 -0.537299608346824
vn 0 -0.8433914458128856 0.5372996083468243
vn 0 0.537299608346824 0.8433914458128858
vn 2.386089585234891e-16 -0.5372996083468238 -0.8433914458128859
vn 1 4.77217917046979e-16 7.490820815306938e-16
vn -1 0 0
vn -0.2867882181755239 0.8191520442889914 -0.4967317648921543
vn 0.286788218175524 -0.8191520442889914 0.4967317648921542
vn 0.40957602214449645 0.5735764363510467 0.7094064799162216
vn -0.4095760221444966 -0.5735764363510463 -0.709406479916222
vn 0.8660254037844382 2.2204460492503185e-16 -0.500000000000001
vn -0.8660254037844378 6.938893903907239e-18 0.5000000000000016
vn -0.09960050292505228 0.819152044288991 0.5648625214636244
vn 0.09960050292505232 -0.8191520442889911 -0.5648625214636246
vn 0.14224425972292512 0.5735764363510474 -0.8067072841115979
vn -0.14224425972292515 -0.573576436351047 0.806707284111598
vn -0.9848077530122079 1.942890293094028e-16 -0.17364817766693155
vn 0.9848077530122079 -1.2490009027033028e-16 0.1736481776669315
vn -0.3686878264946129 0.8191520442889911 0.43938504177070586
vn 0.36868782649461307 -0.8191520442889912 -0.4393850417707059
vn 0.5265407845183628 0.5735764363510467 -0.627506871597133
vn -0.5265407845183627 -0.5735764363510467 0.627506871597133
vn -0.7660444431189781 1.6653345369377383e-16 -0.6427876096865395
vn 0.7660444431189781 -1.3877787807814476e-16 0.6427876096865393
vn -0.4837494599383121 0.8191520442889911 -0.3081823946083846
vn 0.48374945993831214 -0.8191520442889915 0.30818239460838437
vn 0.6908658269734734 0.5735764363510468 0.44013007257297526
vn -0.6908658269734734 -0.5735764363510466 -0.4401300725729753
vn 0.5372996083468243 5.551115123125794e-17 -0.8433914458128856
vn -0.537299608346824 -9.020562075079413e-17 0.8433914458128858
vn -0.5713938048432701 0.8191520442889916 -0.04999048033273036
vn 0.5713938048432705 -0.8191520442889911 0.04999048033273025
vn 0.816034923451708 0.5735764363510468 0.07139380484326958
vn -0.816034923451708 -0.5735764363510467 -0.07139380484326963
vn 0.08715574274765812 -1.2490009027033033e-16 -0.9961946980917455
vn -0.08715574274765844 -8.153200337091002e-17 0.9961946980917455
vn -0.5299155298754948 0.8191520442889914 0.21949819938655515
vn 0.529915529875495 -0.8191520442889914 -0.219498199386555
vn 0.7567978077333782 0.5735764363510467 -0.31347591593739144
vn -0.7567978077333783 -0.5735764363510467 0.3134759159373915
vn -0.3826834323650899 2.7755575615628953e-16 -0.9238795325112867
vn 0.38268343236509034 -9.020562075079409e-17 0.9238795325112867
vn 0.1724777608697534 0.8191520442889916 0.5470295698977548
vn -0.17247776086975347 -0.8191520442889914 -0.547029569897755
vn -0.24632377039348102 0.5735764363510466 -0.7812391898784734
vn 0.24632377039348108 -0.5735764363510464 0.7812391898784736
vn -0.9537169507482268 -3.053113317719187e-16 0.3007057995042734
vn 0.9537169507482269 1.4571677198205192e-16 -0.30070579950427323
vn 0.405579787672639 0.8191520442889917 0.4055797876726391
vn -0.4055797876726391 -0.8191520442889916 -0.405579787672639
vn -0.5792279653395692 0.573576436351046 -0.5792279653395692
vn 0.5792279653395694 -0.573576436351046 0.5792279653395691
vn -0.7071067811865472 -6.106226635438373e-16 0.7071067811865478
vn 0.707106781186547 9.714451465470135e-17 -0.7071067811865481
vn -0.4837494599383119 0.8191520442889915 -0.30818239460838415
vn 0.4837494599383129 -0.8191520442889908 0.30818239460838426
vn 0.6908658269734734 0.5735764363510468 0.44013007257297493
vn -0.6908658269734733 -0.5735764363510467 -0.4401300725729756
vn 0.5372996083468243 3.996802888650577e-16 -0.8433914458128854
vn -0.5372996083468239 -2.4424906541753495e-16 0.8433914458128857
vn -0.5713938048432704 0.8191520442889912 -0.04999048033273029
vn 0.5713938048432704 -0.8191520442889914 0.04999048033273037
vn 0.8160349234517079 0.5735764363510468 0.07139380484326954
vn -0.8160349234517079 -0.5735764363510468 -0.07139380484326961
vn 0.08715574274765783 -2.886579864025415e-16 -0.9961946980917457
vn -0.08715574274765807 1.665334536937738e-17 0.9961946980917455
vn -0.5299155298754951 0.8191520442889915 0.219498199386555
vn 0.529915529875495 -0.8191520442889911 -0.21949819938655585
vn 0.7567978077333782 0.5735764363510467 -0.31347591593739105
vn -0.7567978077333783 -0.5735764363510466 0.3134759159373911
vn -0.38268343236508995 1.7763568394002557e-16 -0.9238795325112867
vn 0.38268343236509 -4.440892098500631e-17 0.9238795325112867
vn -0.3686878264946128 0.8191520442889915 0.4393850417707053
vn 0.368687826494613 -0.8191520442889909 -0.4393850417707059
vn 0.5265407845183631 0.5735764363510467 -0.6275068715971327
vn -0.5265407845183634 -0.5735764363510466 0.6275068715971325
vn -0.7660444431189779 7.105427357601022e-16 -0.6427876096865396
vn 0.7660444431189779 -3.7747582837255415e-16 0.6427876096865398
vn -0.09960050292505218 0.8191520442889911 0.5648625214636244
vn 0.09960050292505238 -0.8191520442889907 -0.564862521463625
vn 0.14224425972292495 0.5735764363510474 -0.8067072841115976
vn -0.1422442597229252 -0.5735764363510472 0.8067072841115978
vn -0.9848077530122079 -3.7747582837255464e-16 -0.1736481776669312
vn 0.984807753012208 -1.7763568394002545e-16 0.1736481776669317
vn 0.17247776086975292 0.8191520442889915 0.5470295698977548
vn -0.17247776086975333 -0.8191520442889915 -0.5470295698977545
vn -0.2463237703934804 0.5735764363510467 -0.7812391898784737
vn 0.2463237703934804 -0.5735764363510465 0.7812391898784737
vn -0.9537169507482269 -2.8865798640254145e-16 0.30070579950427356
vn 0.9537169507482269 3.2196467714129623e-16 -0.30070579950427356
vn 0.4055797876726382 0.8191520442889925 0.40557978767263825
vn -0.40557978767263986 -0.8191520442889916 -0.40557978767263836
vn -0.5792279653395692 0.5735764363510463 -0.5792279653395692
vn 0.5792279653395693 -0.5735764363510459 0.5792279653395693
vn -0.7071067811865476 0 0.7071067811865476
vn 0.7071067811865471 1.5543122344752225e-16 -0.707106781186548
vn 0.547029569897754 0.8191520442889919 0.17247776086975317
vn -0.5470295698977545 -0.8191520442889916 -0.172477760869753
vn -0.7812391898784737 0.5735764363510462 -0.24632377039348113
vn 0.7812391898784741 -0.5735764363510458 0.24632377039348122
vn -0.30070579950427345 4.662936703425671e-16 0.9537169507482268
vn 0.3007057995042737 -1.8873791418627712e-16 -0.9537169507482269
vn 0.568669410425347 0.8191520442889921 -0.07486674818404851
vn -0.5686694104253476 -0.8191520442889916 0.07486674818404862
vn -0.8121440849941728 0.5735764363510464 0.10692079719031272
vn 0.8121440849941729 -0.5735764363510463 -0.10692079719031272
vn 0.13052619222005135 1.887379141862772e-16 0.9914448613738106
vn -0.13052619222005143 -1.276756478318934e-16 -0.9914448613738106
vn 0.4698463103929548 0.8191520442889915 -0.328989928337166
vn -0.4698463103929543 -0.8191520442889917 0.32898992833716584
vn -0.6710100716628346 0.573576436351046 0.46984631039295427
vn 0.6710100716628343 -0.5735764363510459 -0.4698463103929546
vn 0.5735764363510467 -1.7763568394002545e-16 0.8191520442889914
vn -0.5735764363510459 -3.3306690738754775e-16 -0.8191520442889921
vn 0.2648481240693875 0.819152044288992 -0.5087685126991367
vn -0.26484812406938757 -0.819152044288992 0.5087685126991365
vn -0.3782423204790842 0.5735764363510462 0.7265967373044225
vn 0.37824232047908424 -0.5735764363510459 -0.7265967373044228
vn 0.8870108331782223 -4.440892098500639e-17 0.46174861323503313
vn -0.8870108331782223 3.99680288865057e-16 -0.4617486132350328
vn 0 0.8433914458128856 -0.537299608346824
vn 3.330669073875473e-16 -0.8433914458128856 0.5372996083468241
vn 0 0.5372996083468239 0.8433914458128857
vn 3.7454104076534607e-16 -0.5372996083468238 -0.8433914458128859
vn 1 0 0
vn -1 0 0
vn -0.28678821817552375 0.8191520442889918 -0.49673176489215376
vn 0.28678821817552363 -0.8191520442889914 0.4967317648921546
vn 0.4095760221444967 0.5735764363510466 0.7094064799162216
vn -0.4095760221444961 -0.5735764363510465 -0.7094064799162221
vn 0.8660254037844382 5.329070518200773e-16 -0.5000000000000009
vn -0.8660254037844384 -5.329070518200766e-16 0.5000000000000004
usemtl m_3862ff83-8994-0a34-4729-78642d55a522
f 10/25/7 9/26/7 11/27/7
f 9/28/8 10/29/8 12/30/8 13/31/8
f 13/32/9 12/33/9 14/34/9
f 15/35/10 10/36/10 11/37/10
f 10/38/11 15/39/11 16/40/11 12/41/11
f 12/42/12 16/43/12 14/44/12
f 17/45/13 15/46/13 11/47/13
f 15/48/14 17/49/14 18/50/14 16/51/14
f 16/52/15 18/53/15 14/54/15
f 19/55/16 17/56/16 11/57/16
f 17/58/17 19/59/17 20/60/17 18/61/17
f 18/62/18 20/63/18 14/64/18
f 21/65/19 19/66/19 11/67/19
f 19/68/20 21/69/20 22/70/20 20/71/20
f 20/72/21 22/73/21 14/74/21
f 23/75/22 21/76/22 11/77/22
f 21/78/23 23/79/23 24/80/23 22/81/23
f 22/82/24 24/83/24 14/84/24
f 25/85/25 23/86/25 11/87/25
f 23/88/26 25/89/26 26/90/26 24/91/26
f 24/92/27 26/93/27 14/94/27
f 9/95/28 25/96/28 11/97/28
f 25/98/29 9/99/29 13/100/29 26/101/29
f 26/102/30 13/103/30 14/104/30
f 29/105/31 28/106/31 27/107/31 30/108/31
f 33/109/32 32/110/32 31/111/32 34/112/32
f 27/113/33 28/114/33 31/115/33 32/116/33
f 29/117/34 30/118/34 33/119/34 34/120/34
f 30/121/35 27/122/35 32/123/35 33/124/35
f 34/125/36 31/126/36 28/127/36 29/128/36
f 37/129/37 36/130/37 35/131/37 38/132/37
f 41/133/38 40/134/38 39/135/38 42/136/38
f 35/137/39 36/138/39 39/139/39 40/140/39
f 37/141/40 38/142/40 41/143/40 42/144/40
f 38/145/41 35/146/41 40/147/41 41/148/41
f 42/149/42 39/150/42 36/151/42 37/152/42
f 45/153/43 44/154/43 43/155/43 46/156/43
f 49/157/44 48/158/44 47/159/44 50/160/44
f 43/161/45 44/162/45 47/163/45 48/164/45
f 45/165/46 46/166/46 49/167/46 50/168/46
f 46/169/47 43/170/47 48/171/47 49/172/47
f 50/173/48 47/174/48 44/175/48 45/176/48
f 53/177/49 52/178/49 51/179/49 54/180/49
f 57/181/50 56/182/50 55/183/50 58/184/50
f 51/185/51 52/186/51 55/187/51 56/188/51
f 53/189/52 54/190/52 57/191/52 58/192/52
f 54/193/53 51/194/53 56/195/53 57/196/53
f 58/197/54 55/198/54 52/199/54 53/200/54
f 61/201/55 60/202/55 59/203/55 62/204/55
f 65/205/56 64/206/56 63/207/56 66/208/56
f 59/209/57 60/210/57 63/211/57 64/212/57
f 61/213/58 62/214/58 65/215/58 66/216/58
f 62/217/59 59/218/59 64/219/59 65/220/59
f 66/221/60 63/222/60 60/223/60 61/224/60
f 69/225/61 68/226/61 67/227/61 70/228/61
f 73/229/62 72/230/62 71/231/62 74/232/62
f 67/233/63 68/234/63 71/235/63 72/236/63
f 69/237/64 70/238/64 73/239/64 74/240/64
f 70/241/65 67/242/65 72/243/65 73/244/65
f 74/245/66 71/246/66 68/247/66 69/248/66
f 77/249/67 76/250/67 75/251/67 78/252/67
f 81/253/68 80/254/68 79/255/68 82/256/68
f 75/257/69 76/258/69 79/259/69 80/260/69
f 77/261/70 78/262/70 81/263/70 82/264/70
f 78/265/71 75/266/71 80/267/71 81/268/71
f 82/269/72 79/270/72 76/271/72 77/272/72
f 85/273/73 84/274/73 83/275/73 86/276/73
f 89/277/74 88/278/74 87/279/74 90/280/74
f 83/281/75 84/282/75 87/283/75 88/284/75
f 85/285/76 86/286/76 89/287/76 90/288/76
f 86/289/77 83/290/77 88/291/77 89/292/77
f 90/293/78 87/294/78 84/295/78 85/296/78
f 93/297/79 92/298/79 91/299/79 94/300/79
f 97/301/80 96/302/80 95/303/80 98/304/80
f 91/305/81 92/306/81 95/307/81 96/308/81
f 93/309/82 94/310/82 97/311/82 98/312/82
f 94/313/83 91/314/83 96/315/83 97/316/83
f 98/317/84 95/318/84 92/319/84 93/320/84
f 101/321/85 100/322/85 99/323/85 102/324/85
f 105/325/86 104/326/86 103/327/86 106/328/86
f 99/329/87 100/330/87 103/331/87 104/332/87
f 101/333/88 102/334/88 105/335/88 106/336/88
f 102/337/89 99/338/89 104/339/89 105/340/89
f 106/341/90 103/342/90 100/343/90 101/344/90
f 109/345/91 108/346/91 107/347/91 110/348/91
f 113/349/92 112/350/92 111/351/92 114/352/92
f 107/353/93 108/354/93 111/355/93 112/356/93
f 109/357/94 110/358/94 113/359/94 114/360/94
f 110/361/95 107/362/95 112/363/95 113/364/95
f 114/365/96 111/366/96 108/367/96 109/368/96
f 117/369/97 116/370/97 115/371/97 118/372/97
f 121/373/98 120/374/98 119/375/98 122/376/98
f 115/377/99 116/378/99 119/379/99 120/380/99
f 117/381/100 118/382/100 121/383/100 122/384/100
f 118/385/101 115/386/101 120/387/101 121/388/101
f 122/389/102 119/390/102 116/391/102 117/392/102
f 125/393/103 124/394/103 123/395/103 126/396/103
f 129/397/104 128/398/104 127/399/104 130/400/104
f 123/401/105 124/402/105 127/403/105 128/404/105
f 125/405/106 126/406/106 129/407/106 130/408/106
f 126/409/107 123/410/107 128/411/107 129/412/107
f 130/413/108 127/414/108 124/415/108 125/416/108
f 133/417/109 132/418/109 131/419/109 134/420/109
f 137/421/110 136/422/110 135/423/110 138/424/110
f 131/425/111 132/426/111 135/427/111 136/428/111
f 133/429/112 134/430/112 137/431/112 138/432/112
f 134/433/113 131/434/113 136/435/113 137/436/113
f 138/437/114 135/438/114 132/439/114 133/440/114
f 141/441/115 140/442/115 139/443/115 142/444/115
f 145/445/116 144/446/116 143/447/116 146/448/116
f 139/449/117 140/450/117 143/451/117 144/452/117
f 141/453/118 142/454/118 145/455/118 146/456/118
f 142/457/119 139/458/119 144/459/119 145/460/119
f 146/461/120 143/462/120 140/463/120 141/464/120
f 149/465/121 148/466/121 147/467/121 150/468/121
f 153/469/122 152/470/122 151/471/122 154/472/122
f 147/473/123 148/474/123 151/475/123 152/476/123
f 149/477/124 150/478/124 153/479/124 154/480/124
f 150/481/125 147/482/125 152/483/125 153/484/125
f 154/485/126 151/486/126 148/487/126 149/488/126
f 157/489/127 156/490/127 155/491/127 158/492/127
f 161/493/128 160/494/128 159/495/128 162/496/128
f 155/497/129 156/498/129 159/499/129 160/500/129
f 157/501/130 158/502/130 161/503/130 162/504/130
f 158/505/131 155/506/131 160/507/131 161/508/131
f 162/509/132 159/510/132 156/511/132 157/512/132
f 165/513/133 164/514/133 163/515/133 166/516/133
f 169/517/134 168/518/134 167/519/134 170/520/134
f 163/521/135 164/522/135 167/523/135 168/524/135
f 165/525/136 166/526/136 169/527/136 170/528/136
f 166/529/137 163/530/137 168/531/137 169/532/137
f 170/533/138 167/534/138 164/535/138 165/536/138
f 173/537/139 172/538/139 171/539/139 174/540/139
f 177/541/140 176/542/140 175/543/140 178/544/140
f 171/545/141 172/546/141 175/547/141 176/548/141
f 173/549/142 174/550/142 177/551/142 178/552/142
f 174/553/143 171/554/143 176/555/143 177/556/143
f 178/557/144 175/558/144 172/559/144 173/560/144
f 181/561/145 180/562/145 179/563/145 182/564/145
f 185/565/146 184/566/146 183/567/146 186/568/146
f 179/569/147 180/570/147 183/571/147 184/572/147
f 181/573/148 182/574/148 185/575/148 186/576/148
f 182/577/149 179/578/149 184/579/149 185/580/149
f 186/581/150 183/582/150 180/583/150 181/584/150
f 189/585/151 188/586/151 187/587/151 190/588/151
f 193/589/152 192/590/152 191/591/152 194/592/152
f 187/593/153 188/594/153 191/595/153 192/596/153
f 189/597/154 190/598/154 193/599/154 194/600/154
f 190/601/155 187/602/155 192/603/155 193/604/155
f 194/605/156 191/606/156 188/607/156 189/608/156
f 197/609/157 196/610/157 195/611/157 198/612/157
f 201/613/158 200/614/158 199/615/158 202/616/158
f 195/617/159 196/618/159 199/619/159 200/620/159
f 197/621/160 198/622/160 201/623/160 202/624/160
f 198/625/161 195/626/161 200/627/161 201/628/161
f 202/629/162 199/630/162 196/631/162 197/632/162
f 205/633/163 204/634/163 203/635/163 206/636/163
f 209/637/164 208/638/164 207/639/164 210/640/164
f 203/641/165 204/642/165 207/643/165 208/644/165
f 205/645/166 206/646/166 209/647/166 210/648/166
f 206/649/167 203/650/167 208/651/167 209/652/167
f 210/653/168 207/654/168 204/655/168 205/656/168
f 213/657/169 212/658/169 211/659/169 214/660/169
f 217/661/170 216/662/170 215/663/170 218/664/170
f 211/665/171 212/666/171 215/667/171 216/668/171
f 213/669/172 214/670/172 217/671/172 218/672/172
f 214/673/173 211/674/173 216/675/173 217/676/173
f 218/677/174 215/678/174 212/679/174 213/680/174
f 221/681/175 220/682/175 219/683/175 222/684/175
f 225/685/176 224/686/176 223/687/176 226/688/176
f 219/689/177 220/690/177 223/691/177 224/692/177
f 221/693/178 222/694/178 225/695/178 226/696/178
f 222/697/179 219/698/179 224/699/179 225/700/179
f 226/701/180 223/702/180 220/703/180 221/704/180
f 229/705/181 228/706/181 227/707/181 230/708/181
f 233/709/182 232/710/182 231/711/182 234/712/182
f 227/713/183 228/714/183 231/715/183 232/716/183
f 229/717/184 230/718/184 233/719/184 234/720/184
f 230/721/185 227/722/185 232/723/185 233/724/185
f 234/725/186 231/726/186 228/727/186 229/728/186
f 237/729/187 236/730/187 235/731/187 238/732/187
f 241/733/188 240/734/188 239/735/188 242/736/188
f 235/737/189 236/738/189 239/739/189 240/740/189
f 237/741/190 238/742/190 241/743/190 242/744/190
f 238/745/191 235/746/191 240/747/191 241/748/191
f 242/749/192 239/750/192 236/751/192 237/752/192