# Made in Blockbench 4.12.0-beta.3
mtllib block.mtl

o spokes
v -0.062499999999999445 0.7499999999999993 0.7329951288348662
v 0.2670048711651346 0.7499999999999992 1.0625
v 0.5000000000000006 0.7499999999999991 0.5
v -0.06249999999999967 0.24999999999999936 0.7329951288348662
v 0.2670048711651344 0.24999999999999922 1.0625
v 0.5000000000000003 0.2499999999999991 0.5
v -0.062499999999999445 0.7499999999999993 0.26700487116513383
v -0.06249999999999967 0.24999999999999936 0.26700487116513383
v 0.2670048711651345 0.7499999999999992 -0.0625
v 0.26700487116513427 0.24999999999999922 -0.0625
v 0.7329951288348665 0.749999999999999 -0.0625
v 0.7329951288348663 0.249999999999999 -0.0625
v 1.0625000000000004 0.7499999999999989 0.26700487116513383
v 1.0625000000000002 0.2499999999999989 0.26700487116513383
v 1.0625000000000004 0.7499999999999989 0.7329951288348662
v 1.0625000000000004 0.2499999999999989 0.7329951288348662
v 0.732995128834867 0.749999999999999 1.0625
v 0.7329951288348667 0.249999999999999 1.0625
v 0.7499999999999996 0.8124999999999991 0.25
v 0.25000000000000017 0.8124999999999991 0.25
v 0.25000000000000017 0.8124999999999991 0.75
v 0.7499999999999996 0.8124999999999991 0.75
v 0.7499999999999998 0.18749999999999906 0.75
v 0.25000000000000006 0.18749999999999917 0.75
v 0.25000000000000006 0.18749999999999917 0.25
v 0.7499999999999998 0.18749999999999906 0.25
v 0.5652652789880939 0.6330909565283664 1.1103756963125009
v 0.3699554815184757 0.7764850656161277 1.048794753714131
v 0.29477903164240743 0.7764850656161277 1.2872239914011876
v 0.49008882911202556 0.6330909565283664 1.3488049339995576
v 0.21657404416314868 0.2235149343838705 1.2625660535646812
v 0.021264246693530442 0.36690904347163183 1.200985110966311
v 0.09644069656959875 0.36690904347163183 0.9625558732792543
v 0.29175049403921693 0.2235149343838705 1.0241368158776245
v 0.8171063463543872 0.6330909565283663 1.0256059478279669
v 0.6140703251058443 0.7764850656161277 1.0523361471255452
v 0.6467018731608571 0.7764850656161277 1.3001973624689978
v 0.8497378944094001 0.6330909565283663 1.2734671631714196
v 0.5654031891967265 0.2235149343838705 1.310900537263444
v 0.3623671679481835 0.36690904347163195 1.3376307365610223
v 0.32973561989317063 0.36690904347163195 1.0897695212175695
v 0.5327716411417136 0.2235149343838705 1.0630393219199914
v 1.023974582003556 0.6330909565283664 0.8197947540291473
v 0.8562220640878476 0.7764850656161277 0.9372563316273856
v 0.9996161731756092 0.7764850656161277 1.1420443426996334
v 1.1673686910913175 0.6330909565283664 1.024582765101395
v 0.9324455358948406 0.2235149343838705 1.189077729269978
v 0.7646930179791323 0.3669090434716319 1.3065393068682165
v 0.6212989088913706 0.3669090434716319 1.1017512957959685
v 0.789051426807079 0.2235149343838705 0.98428971819773
v 1.1124359147399818 0.6330909565283663 0.5417168746068699
v 1.017875334620211 0.7764850656161275 0.7233660589329752
v 1.2396280429147666 0.7764850656161275 0.8388032122417335
v 1.3341886230345374 0.6330909565283663 0.657154027915628
v 1.2017645609998435 0.22351493438387032 0.9115382842651965
v 1.1072039808800727 0.36690904347163167 1.093187468591302
v 0.885451272585517 0.3669090434716318 0.9777503152825436
v 0.980011852705288 0.22351493438387032 0.7961011309564382
v 1.0625 0.6436854104098676 0.2602511671866836
v 1.0625 0.7780103124965734 0.4710990286399047
v 1.3124999999999998 0.7780103124965734 0.4710990286399047
v 1.3125 0.6436854104098677 0.2602511671866836
v 1.3125 0.22198968750342474 0.5289009713600955
v 1.3124999999999998 0.3563145895901306 0.7397488328133166
v 1.0625 0.3563145895901306 0.7397488328133166
v 1.0625 0.22198968750342474 0.5289009713600954
v 0.8642452323168038 0.6330909565283663 0.005891248787434189
v 0.9666392378529277 0.7764850656161277 0.18324286876648926
v 1.1831455887990372 0.7764850656161277 0.05824286876648903
v 1.0807515832629133 0.6330909565283663 -0.11910875121256603
v 1.224145692350675 0.2235149343838706 0.12925713123351087
v 1.3265396978867992 0.3669090434716321 0.30660875121256603
v 1.1100333469406898 0.3669090434716321 0.43160875121256626
v 1.0076393414045657 0.2235149343838706 0.2542571312335111
v -0.0966350192659958 0.633090956528366 0.6443769409422075
v -0.061073954335264566 0.7764850656161275 0.44270011991430847
v -0.30727589258831656 0.7764850656161275 0.3992880754975755
v -0.3428369575190478 0.633090956528366 0.6009648965254746
v -0.29303670605652177 0.22351493438387043 0.3185336357936625
v -0.2574756411257905 0.3669090434716321 0.11685681476576326
v -0.011273702872738545 0.3669090434716321 0.16026885918249623
v -0.04683476780346979 0.22351493438387043 0.36194568021039547
v -0.0888895539428737 0.6330909565283662 0.3267165889436395
v 0.04274564218671681 0.7764850656161277 0.16983987104435655
v -0.14876546859302772 0.7764850656161277 0.009142968622721723
v -0.28040066472261826 0.6330909565283662 0.16601968652200463
v -0.09605675147531197 0.22351493438387054 -0.053672834363348076
v 0.03557844465427862 0.3669090434716321 -0.21054955226263106
v 0.22708955543402315 0.3669090434716321 -0.049852649840996244
v 0.09545435930443257 0.22351493438387054 0.10702406805828674
v 0.5949354363388265 0.6330909565283662 -0.10646954599346609
v 0.7676518930821945 0.7764850656161277 0.0035629721497775213
v 0.9019767951689005 0.7764850656161277 -0.2072848893034439
v 0.7292603384255325 0.6330909565283662 -0.3173174074466875
v 0.9711350683946883 0.2235149343838706 -0.16322621014249544
v 1.1438515251380563 0.3669090434716321 -0.05319369199925178
v 1.0095266230513504 0.3669090434716321 0.15765416945396965
v 0.8368101663079823 0.2235149343838706 0.04762165131072599
v 0.3041722886532767 0.6330909565283663 -0.08178136336519821
v 0.5081810195162034 0.7764850656161277 -0.06393291215438078
v 0.529969955203118 0.7764850656161277 -0.31298158667731724
v 0.3259612243401913 0.6330909565283663 -0.33083003788813464
v 0.6116581267618264 0.2235149343838706 -0.30583479772176947
v 0.8156668576247532 0.3669090434716322 -0.287986346510952
v 0.7938779219378386 0.3669090434716321 -0.03893767198801559
v 0.5898691910749118 0.2235149343838706 -0.05678612319883303
v 0.05766196085909106 0.6330909565283662 0.0743768023012139
v 0.24686141279243531 0.7764850656161277 -0.003992176683133786
v 0.15119055470116283 0.7764850656161277 -0.23496205981095553
v -0.03800889723218143 0.6330909565283662 -0.15659308082660783
v 0.22694886770556585 0.22351493438387054 -0.26634218051988534
v 0.4161483196389102 0.3669090434716321 -0.3447111595042331
v 0.5118191777301826 0.3669090434716321 -0.11374127637641136
v 0.3226197257968383 0.22351493438387054 -0.03537229739206363
v 0.03744412672074568 0.6330909565283663 0.9035593034304013
v -0.02413681587762445 0.7764850656161277 0.7082495059607833
v -0.2625660535646812 0.7764850656161277 0.7834259558368516
v -0.20098511096631105 0.6330909565283663 0.9787357533064696
v -0.2872239914011877 0.22351493438387054 0.7052209683575924
v -0.34880493399955786 0.3669090434716321 0.5099111708879743
v -0.11037569631250112 0.3669090434716321 0.434734721011906
v -0.048794753714130945 0.22351493438387054 0.6300445184815242
v 0.27605087816817286 0.6330909565283664 1.0715460070030387
v 0.13124388683328075 0.7764850656161277 0.9267390156681468
v -0.045532808463356056 0.7764850656161277 1.1035157109647837
v 0.099274182871536 0.6330909565283664 1.2483227022996757
v -0.1035157109647834 0.2235149343838705 1.0455328084633564
v -0.24832270229967557 0.3669090434716319 0.9007258171284642
v -0.0715460070030387 0.3669090434716319 0.7239491218318275
v 0.07326098433185346 0.2235149343838705 0.8687561131667194
v 0.5742989837568475 0.7201364865683686 -0.04551085075737381
v 0.6606572121285315 0.7918335411122492 0.009505408314247926
v 0.7278196631718844 0.7918335411122492 -0.09591852241236279
v 0.6414614348002006 0.7201364865683686 -0.15093478148398454
v 0.9438048472616455 0.20816645888774898 0.0416792151462556
v 1.0301630756333293 0.27986351343162974 0.09669547421787736
v 0.9630006245899765 0.27986351343162974 0.2021194049444881
v 0.8766423962182925 0.20816645888774898 0.14710314587286633
v 0.31401512464457537 0.7201364865683687 -0.018181486952555392
v 0.41601949007603856 0.7918335411122494 -0.00925726134714669
v 0.4269139579194959 0.7918335411122494 -0.1337815986086149
v 0.32490959248803264 0.7201364865683687 -0.1427058242140236
v 0.6820307205150766 0.2081664588877491 -0.11146177400606713
v 0.7840350859465398 0.27986351343162974 -0.10253754840065843
v 0.7731406181030825 0.27986351343162974 0.02198678886080979
v 0.6711362526716192 0.2081664588877491 0.013062563255401088
v 0.09575981774802689 0.7201364865683686 0.12624566579874208
v 0.1903595437146989 0.7918335411122492 0.08706117630656826
v 0.14252411466906267 0.7918335411122492 -0.028423765257342595
v 0.04792438870239066 0.7201364865683686 0.01076072423483121
v 0.37912159487457475 0.20816645888774893 -0.12642565038176573
v 0.47372132084124685 0.2798635134316297 -0.16561013987393952
v 0.5215567498868832 0.27986351343162963 -0.05012519831002868
v 0.426957023920211 0.20816645888774893 -0.01094070881785486
v -0.0311459663714532 0.7201364865683686 0.3551332001848965
v 0.034671631693341975 0.7918335411122492 0.2766948412352551
v -0.061083923696530304 0.7918335411122492 0.19634639002443774
v -0.12690152176132546 0.7201364865683686 0.2747847489740791
v 0.10352836979780744 0.20816645888774898 0.00016909786738814048
v 0.1693459678626026 0.27986351343162974 -0.07826926108225327
v 0.2651015232524749 0.27986351343162974 0.00207919012856414
v 0.1992839251876797 0.20816645888774898 0.08051754907820555
v -0.03241929990286574 0.7201364865683684 0.6401146543808925
v -0.014638767437500144 0.791833541112249 0.5392762438669432
v -0.13773973656402616 0.791833541112249 0.5175702216585767
v -0.15552026902939176 0.7201364865683684 0.6184086321725261
v -0.0932699547012342 0.20816645888774893 0.2653695562577608
v -0.0754894222358686 0.27986351343162974 0.16453114574381134
v 0.047611546890657386 0.27986351343162974 0.18623716795217782
v 0.02983101442529179 0.20816645888774893 0.2870755784661273
v 0.09243606054727693 0.7201364865683686 0.8701270897125895
v 0.06164558924809188 0.7918335411122492 0.7724721909777805
v -0.0575690295954365 0.7918335411122492 0.8100604159158146
v -0.026778558296251476 0.7201364865683686 0.9077153146506235
v -0.13457715883984728 0.20816645888774904 0.565821833464527
v -0.16536763013903233 0.2798635134316297 0.46816693472971804
v -0.04615301129550395 0.2798635134316297 0.4305787097916839
v -0.015362539996318897 0.20816645888774904 0.5282336085264928
v 0.3093920408881489 0.7201364865683688 1.0164988220746964
v 0.23698854522070295 0.7918335411122492 0.9440953264072505
v 0.14860019757238457 0.7918335411122492 1.032483674055569
v 0.22100369323983055 0.7201364865683688 1.104887169723015
v -0.032483674055568734 0.20816645888774887 0.8513998024276157
v -0.1048871697230147 0.2798635134316295 0.7789963067601697
v -0.01649882207469633 0.27986351343162946 0.6906079591118512
v 0.05590467359274964 0.20816645888774887 0.7630114547792972
v 0.569421290208316 0.7201364865683688 1.046153011295504
v 0.471766391473507 0.7918335411122494 1.0153625399963189
v 0.4341781665354729 0.7918335411122494 1.1345771588398472
v 0.5318330652702818 0.7201364865683688 1.1653676301390323
v 0.18993958408418565 0.20816645888774882 1.0575690295954365
v 0.09228468534937662 0.27986351343162946 1.0267785582962516
v 0.12987291028741077 0.27986351343162946 0.9075639394527231
v 0.22752780902221975 0.20816645888774882 0.9383544107519082
v 0.7937312921800824 0.7201364865683687 0.9656440220549953
v 0.6922132815558111 0.7918335411122492 0.9790091217037844
v 0.7085290555833175 0.7918335411122492 1.1029397293755108
v 0.8100470662075888 0.7201364865683687 1.0895746297267217
v 0.4546286846917468 0.20816645888774887 1.1363663473417522
v 0.3531106740674754 0.2798635134316295 1.1497314469905413
v 0.336794900039969 0.2798635134316295 1.025800839318815
v 0.43831291066424033 0.20816645888774887 1.0124357396700259
v 0.975553319652248 0.7201364865683688 0.777401275139572
v 0.891677060694394 0.7918335411122495 0.8361320639386911
v 0.9633741152382748 0.7918335411122495 0.9385260694748151
v 1.0472503741961288 0.7201364865683688 0.8797952806756959
v 0.7535964302005326 0.20816645888774887 1.0854139858864245
v 0.6697201712426786 0.2798635134316295 1.1441447746855438
v 0.5980231166987977 0.2798635134316295 1.0417507691494197
v 0.6818993756566518 0.20816645888774887 0.9830199803503006
v 1.049910600390737 0.7201364865683687 0.5264718503175106
v 1.0026303103308516 0.7918335411122492 0.6172964424805633
v 1.1135066644781293 0.7918335411122492 0.6750150191349423
v 1.1607869545380147 0.7201364865683687 0.5841904269718897
v 0.9952568769946474 0.20816645888774876 0.9021707474088502
v 0.9479765869347619 0.27986351343162935 0.9929953395719029
v 0.8371002327874841 0.2798635134316294 0.9352767629175238
v 0.8843805228473696 0.20816645888774882 0.8444521707544711
v 0.9999999999999999 0.7299786012948495 0.2793819070283124
v 0.9999999999999999 0.7971410523382023 0.38480583775492283
v 1.125 0.7971410523382023 0.38480583775492283
v 1.125 0.7299786012948495 0.27938190702831245
v 1.125 0.2028589476617959 0.6151941622450773
v 1.125 0.2700213987051488 0.7206180929716878
v 0.9999999999999999 0.27002139870514874 0.7206180929716878
v 0.9999999999999999 0.2028589476617959 0.6151941622450773
v 0.8177928823283371 0.7201364865683687 0.050433418476438396
v 0.8689898850963991 0.7918335411122492 0.13910922846596585
v 0.9772430605694538 0.7918335411122492 0.07660922846596574
v 0.9260460578013919 0.7201364865683687 -0.012066581523561715
v 1.1052886941610944 0.20816645888774904 0.2983907715340345
v 1.1564856969291564 0.27986351343162974 0.387066581523562
v 1.0482325214561015 0.27986351343162974 0.4495665815235621
v 0.9970355186880396 0.20816645888774904 0.3608907715340346
vt 0.9296875 0.9375
vt 0.6953125 0.9375
vt 0.8125 0.65625
vt 0.6953125 0.90625
vt 0.9296875 0.90625
vt 0.9296875 0.9375
vt 0.6953125 0.9375
vt 0.9296875 0.9375
vt 0.6953125 0.9375
vt 0.8125 0.65625
vt 0.9296875 0.9375
vt 0.6953125 0.9375
vt 0.8125 0.65625
vt 0.6953125 0.90625
vt 0.9296875 0.90625
vt 0.9296875 0.9375
vt 0.6953125 0.9375
vt 0.9296875 0.9375
vt 0.6953125 0.9375
vt 0.8125 0.65625
vt 0.9296875 0.9375
vt 0.6953125 0.9375
vt 0.8125 0.65625
vt 0.6953125 0.90625
vt 0.9296875 0.90625
vt 0.9296875 0.9375
vt 0.6953125 0.9375
vt 0.9296875 0.9375
vt 0.6953125 0.9375
vt 0.8125 0.65625
vt 0.9296875 0.9375
vt 0.6953125 0.9375
vt 0.8125 0.65625
vt 0.6953125 0.90625
vt 0.9296875 0.90625
vt 0.9296875 0.9375
vt 0.6953125 0.9375
vt 0.9296875 0.9375
vt 0.6953125 0.9375
vt 0.8125 0.65625
vt 0.9296875 0.9375
vt 0.6953125 0.9375
vt 0.8125 0.65625
vt 0.6953125 0.90625
vt 0.9296875 0.90625
vt 0.9296875 0.9375
vt 0.6953125 0.9375
vt 0.9296875 0.9375
vt 0.6953125 0.9375
vt 0.8125 0.65625
vt 0.9296875 0.9375
vt 0.6953125 0.9375
vt 0.8125 0.65625
vt 0.6953125 0.90625
vt 0.9296875 0.90625
vt 0.9296875 0.9375
vt 0.6953125 0.9375
vt 0.9296875 0.9375
vt 0.6953125 0.9375
vt 0.8125 0.65625
vt 0.9296875 0.9375
vt 0.6953125 0.9375
vt 0.8125 0.65625
vt 0.6953125 0.90625
vt 0.9296875 0.90625
vt 0.9296875 0.9375
vt 0.6953125 0.9375
vt 0.9296875 0.9375
vt 0.6953125 0.9375
vt 0.8125 0.65625
vt 0.9296875 0.9375
vt 0.6953125 0.9375
vt 0.8125 0.65625
vt 0.6953125 0.90625
vt 0.9296875 0.90625
vt 0.9296875 0.9375
vt 0.6953125 0.9375
vt 0.9296875 0.9375
vt 0.6953125 0.9375
vt 0.8125 0.65625
vt 0.9375 0.0625
vt 0.9375 0.3125
vt 0.6875 0.3125
vt 0.6875 0.0625
vt 0.9375 0.0625
vt 0.9375 0.3125
vt 0.6875 0.3125
vt 0.6875 0.0625
vt 0.5625 0.34375
vt 0.625 0.34375
vt 0.625 0.375
vt 0.5625 0.375
vt 0.5625 0.34375
vt 0.625 0.34375
vt 0.625 0.375
vt 0.5625 0.375
vt 0.5625 0.34375
vt 0.625 0.34375
vt 0.625 0.375
vt 0.5625 0.375
vt 0.5625 0.34375
vt 0.625 0.34375
vt 0.625 0.375
vt 0.5625 0.375
vt 0.90625 0.09375
vt 0.90625 0.28125
vt 0.71875 0.28125
vt 0.71875 0.09375
vt 0.90625 0.09375
vt 0.90625 0.28125
vt 0.71875 0.28125
vt 0.71875 0.09375
vt 0.03125 0
vt 0.25 0
vt 0.25 0.4375
vt 0.03125 0.4375
vt 0.03125 0
vt 0.25 0
vt 0.25 0.4375
vt 0.03125 0.4375
vt 0.03125 0
vt 0.25 0
vt 0.25 0.4375
vt 0.03125 0.4375
vt 0.03125 0
vt 0.25 0
vt 0.25 0.4375
vt 0.03125 0.4375
vt 0.90625 0.09375
vt 0.90625 0.28125
vt 0.71875 0.28125
vt 0.71875 0.09375
vt 0.90625 0.09375
vt 0.90625 0.28125
vt 0.71875 0.28125
vt 0.71875 0.09375
vt 0.03125 0
vt 0.25 0
vt 0.25 0.4375
vt 0.03125 0.4375
vt 0.03125 0
vt 0.25 0
vt 0.25 0.4375
vt 0.03125 0.4375
vt 0.03125 0
vt 0.25 0
vt 0.25 0.4375
vt 0.03125 0.4375
vt 0.03125 0
vt 0.25 0
vt 0.25 0.4375
vt 0.03125 0.4375
vt 0.90625 0.09375
vt 0.90625 0.28125
vt 0.71875 0.28125
vt 0.71875 0.09375
vt 0.90625 0.09375
vt 0.90625 0.28125
vt 0.71875 0.28125
vt 0.71875 0.09375
vt 0.03125 0
vt 0.25 0
vt 0.25 0.4375
vt 0.03125 0.4375
vt 0.03125 0
vt 0.25 0
vt 0.25 0.4375
vt 0.03125 0.4375
vt 0.03125 0
vt 0.25 0
vt 0.25 0.4375
vt 0.03125 0.4375
vt 0.03125 0
vt 0.25 0
vt 0.25 0.4375
vt 0.03125 0.4375
vt 0.90625 0.09375
vt 0.90625 0.28125
vt 0.71875 0.28125
vt 0.71875 0.09375
vt 0.90625 0.09375
vt 0.90625 0.28125
vt 0.71875 0.28125
vt 0.71875 0.09375
vt 0.03125 0
vt 0.25 0
vt 0.25 0.4375
vt 0.03125 0.4375
vt 0.03125 0
vt 0.25 0
vt 0.25 0.4375
vt 0.03125 0.4375
vt 0.03125 0
vt 0.25 0
vt 0.25 0.4375
vt 0.03125 0.4375
vt 0.03125 0
vt 0.25 0
vt 0.25 0.4375
vt 0.03125 0.4375
vt 0.90625 0.09375
vt 0.90625 0.28125
vt 0.71875 0.28125
vt 0.71875 0.09375
vt 0.90625 0.09375
vt 0.90625 0.28125
vt 0.71875 0.28125
vt 0.71875 0.09375
vt 0.03125 0
vt 0.25 0
vt 0.25 0.4375
vt 0.03125 0.4375
vt 0.03125 0
vt 0.25 0
vt 0.25 0.4375
vt 0.03125 0.4375
vt 0.03125 0
vt 0.25 0
vt 0.25 0.4375
vt 0.03125 0.4375
vt 0.03125 0
vt 0.25 0
vt 0.25 0.4375
vt 0.03125 0.4375
vt 0.90625 0.09375
vt 0.90625 0.28125
vt 0.71875 0.28125
vt 0.71875 0.09375
vt 0.90625 0.09375
vt 0.90625 0.28125
vt 0.71875 0.28125
vt 0.71875 0.09375
vt 0.03125 0
vt 0.25 0
vt 0.25 0.4375
vt 0.03125 0.4375
vt 0.03125 0
vt 0.25 0
vt 0.25 0.4375
vt 0.03125 0.4375
vt 0.03125 0
vt 0.25 0
vt 0.25 0.4375
vt 0.03125 0.4375
vt 0.03125 0
vt 0.25 0
vt 0.25 0.4375
vt 0.03125 0.4375
vt 0.90625 0.09375
vt 0.90625 0.28125
vt 0.71875 0.28125
vt 0.71875 0.09375
vt 0.90625 0.09375
vt 0.90625 0.28125
vt 0.71875 0.28125
vt 0.71875 0.09375
vt 0.03125 0
vt 0.25 0
vt 0.25 0.4375
vt 0.03125 0.4375
vt 0.03125 0
vt 0.25 0
vt 0.25 0.4375
vt 0.03125 0.4375
vt 0.03125 0
vt 0.25 0
vt 0.25 0.4375
vt 0.03125 0.4375
vt 0.03125 0
vt 0.25 0
vt 0.25 0.4375
vt 0.03125 0.4375
vt 0.90625 0.09375
vt 0.90625 0.28125
vt 0.71875 0.28125
vt 0.71875 0.09375
vt 0.90625 0.09375
vt 0.90625 0.28125
vt 0.71875 0.28125
vt 0.71875 0.09375
vt 0.03125 0
vt 0.25 0
vt 0.25 0.4375
vt 0.03125 0.4375
vt 0.03125 0
vt 0.25 0
vt 0.25 0.4375
vt 0.03125 0.4375
vt 0.03125 0
vt 0.25 0
vt 0.25 0.4375
vt 0.03125 0.4375
vt 0.03125 0
vt 0.25 0
vt 0.25 0.4375
vt 0.03125 0.4375
vt 0.90625 0.09375
vt 0.90625 0.28125
vt 0.71875 0.28125
vt 0.71875 0.09375
vt 0.90625 0.09375
vt 0.90625 0.28125
vt 0.71875 0.28125
vt 0.71875 0.09375
vt 0.03125 0
vt 0.25 0
vt 0.25 0.4375
vt 0.03125 0.4375
vt 0.03125 0
vt 0.25 0
vt 0.25 0.4375
vt 0.03125 0.4375
vt 0.03125 0
vt 0.25 0
vt 0.25 0.4375
vt 0.03125 0.4375
vt 0.03125 0
vt 0.25 0
vt 0.25 0.4375
vt 0.03125 0.4375
vt 0.90625 0.09375
vt 0.90625 0.28125
vt 0.71875 0.28125
vt 0.71875 0.09375
vt 0.90625 0.09375
vt 0.90625 0.28125
vt 0.71875 0.28125
vt 0.71875 0.09375
vt 0.03125 0
vt 0.25 0
vt 0.25 0.4375
vt 0.03125 0.4375
vt 0.03125 0
vt 0.25 0
vt 0.25 0.4375
vt 0.03125 0.4375
vt 0.03125 0
vt 0.25 0
vt 0.25 0.4375
vt 0.03125 0.4375
vt 0.03125 0
vt 0.25 0
vt 0.25 0.4375
vt 0.03125 0.4375
vt 0.90625 0.09375
vt 0.90625 0.28125
vt 0.71875 0.28125
vt 0.71875 0.09375
vt 0.90625 0.09375
vt 0.90625 0.28125
vt 0.71875 0.28125
vt 0.71875 0.09375
vt 0.03125 0
vt 0.25 0
vt 0.25 0.4375
vt 0.03125 0.4375
vt 0.03125 0
vt 0.25 0
vt 0.25 0.4375
vt 0.03125 0.4375
vt 0.03125 0
vt 0.25 0
vt 0.25 0.4375
vt 0.03125 0.4375
vt 0.03125 0
vt 0.25 0
vt 0.25 0.4375
vt 0.03125 0.4375
vt 0.90625 0.09375
vt 0.90625 0.28125
vt 0.71875 0.28125
vt 0.71875 0.09375
vt 0.90625 0.09375
vt 0.90625 0.28125
vt 0.71875 0.28125
vt 0.71875 0.09375
vt 0.03125 0
vt 0.25 0
vt 0.25 0.4375
vt 0.03125 0.4375
vt 0.03125 0
vt 0.25 0
vt 0.25 0.4375
vt 0.03125 0.4375
vt 0.03125 0
vt 0.25 0
vt 0.25 0.4375
vt 0.03125 0.4375
vt 0.03125 0
vt 0.25 0
vt 0.25 0.4375
vt 0.03125 0.4375
vt 0.90625 0.09375
vt 0.90625 0.28125
vt 0.71875 0.28125
vt 0.71875 0.09375
vt 0.90625 0.09375
vt 0.90625 0.28125
vt 0.71875 0.28125
vt 0.71875 0.09375
vt 0.03125 0
vt 0.25 0
vt 0.25 0.4375
vt 0.03125 0.4375
vt 0.03125 0
vt 0.25 0
vt 0.25 0.4375
vt 0.03125 0.4375
vt 0.03125 0
vt 0.25 0
vt 0.25 0.4375
vt 0.03125 0.4375
vt 0.03125 0
vt 0.25 0
vt 0.25 0.4375
vt 0.03125 0.4375
vt 0.875 0.125
vt 0.875 0.25
vt 0.75 0.25
vt 0.75 0.125
vt 0.875 0.125
vt 0.875 0.25
vt 0.75 0.25
vt 0.75 0.125
vt 0.75 0.125
vt 0.875 0.125
vt 0.875 0.25
vt 0.75 0.25
vt 0.75 0.125
vt 0.875 0.125
vt 0.875 0.25
vt 0.75 0.25
vt 0.75 0.125
vt 0.875 0.125
vt 0.875 0.25
vt 0.75 0.25
vt 0.75 0.125
vt 0.875 0.125
vt 0.875 0.25
vt 0.75 0.25
vt 0.875 0.125
vt 0.875 0.25
vt 0.75 0.25
vt 0.75 0.125
vt 0.875 0.125
vt 0.875 0.25
vt 0.75 0.25
vt 0.75 0.125
vt 0.75 0.125
vt 0.875 0.125
vt 0.875 0.25
vt 0.75 0.25
vt 0.75 0.125
vt 0.875 0.125
vt 0.875 0.25
vt 0.75 0.25
vt 0.75 0.125
vt 0.875 0.125
vt 0.875 0.25
vt 0.75 0.25
vt 0.75 0.125
vt 0.875 0.125
vt 0.875 0.25
vt 0.75 0.25
vt 0.875 0.125
vt 0.875 0.25
vt 0.75 0.25
vt 0.75 0.125
vt 0.875 0.125
vt 0.875 0.25
vt 0.75 0.25
vt 0.75 0.125
vt 0.75 0.125
vt 0.875 0.125
vt 0.875 0.25
vt 0.75 0.25
vt 0.75 0.125
vt 0.875 0.125
vt 0.875 0.25
vt 0.75 0.25
vt 0.75 0.125
vt 0.875 0.125
vt 0.875 0.25
vt 0.75 0.25
vt 0.75 0.125
vt 0.875 0.125
vt 0.875 0.25
vt 0.75 0.25
vt 0.875 0.125
vt 0.875 0.25
vt 0.75 0.25
vt 0.75 0.125
vt 0.875 0.125
vt 0.875 0.25
vt 0.75 0.25
vt 0.75 0.125
vt 0.75 0.125
vt 0.875 0.125
vt 0.875 0.25
vt 0.75 0.25
vt 0.75 0.125
vt 0.875 0.125
vt 0.875 0.25
vt 0.75 0.25
vt 0.75 0.125
vt 0.875 0.125
vt 0.875 0.25
vt 0.75 0.25
vt 0.75 0.125
vt 0.875 0.125
vt 0.875 0.25
vt 0.75 0.25
vt 0.875 0.125
vt 0.875 0.25
vt 0.75 0.25
vt 0.75 0.125
vt 0.875 0.125
vt 0.875 0.25
vt 0.75 0.25
vt 0.75 0.125
vt 0.75 0.125
vt 0.875 0.125
vt 0.875 0.25
vt 0.75 0.25
vt 0.75 0.125
vt 0.875 0.125
vt 0.875 0.25
vt 0.75 0.25
vt 0.75 0.125
vt 0.875 0.125
vt 0.875 0.25
vt 0.75 0.25
vt 0.75 0.125
vt 0.875 0.125
vt 0.875 0.25
vt 0.75 0.25
vt 0.875 0.125
vt 0.875 0.25
vt 0.75 0.25
vt 0.75 0.125
vt 0.875 0.125
vt 0.875 0.25
vt 0.75 0.25
vt 0.75 0.125
vt 0.75 0.125
vt 0.875 0.125
vt 0.875 0.25
vt 0.75 0.25
vt 0.75 0.125
vt 0.875 0.125
vt 0.875 0.25
vt 0.75 0.25
vt 0.75 0.125
vt 0.875 0.125
vt 0.875 0.25
vt 0.75 0.25
vt 0.75 0.125
vt 0.875 0.125
vt 0.875 0.25
vt 0.75 0.25
vt 0.875 0.125
vt 0.875 0.25
vt 0.75 0.25
vt 0.75 0.125
vt 0.875 0.125
vt 0.875 0.25
vt 0.75 0.25
vt 0.75 0.125
vt 0.75 0.125
vt 0.875 0.125
vt 0.875 0.25
vt 0.75 0.25
vt 0.75 0.125
vt 0.875 0.125
vt 0.875 0.25
vt 0.75 0.25
vt 0.75 0.125
vt 0.875 0.125
vt 0.875 0.25
vt 0.75 0.25
vt 0.75 0.125
vt 0.875 0.125
vt 0.875 0.25
vt 0.75 0.25
vt 0.875 0.125
vt 0.875 0.25
vt 0.75 0.25
vt 0.75 0.125
vt 0.875 0.125
vt 0.875 0.25
vt 0.75 0.25
vt 0.75 0.125
vt 0.75 0.125
vt 0.875 0.125
vt 0.875 0.25
vt 0.75 0.25
vt 0.75 0.125
vt 0.875 0.125
vt 0.875 0.25
vt 0.75 0.25
vt 0.75 0.125
vt 0.875 0.125
vt 0.875 0.25
vt 0.75 0.25
vt 0.75 0.125
vt 0.875 0.125
vt 0.875 0.25
vt 0.75 0.25
vt 0.875 0.125
vt 0.875 0.25
vt 0.75 0.25
vt 0.75 0.125
vt 0.875 0.125
vt 0.875 0.25
vt 0.75 0.25
vt 0.75 0.125
vt 0.75 0.125
vt 0.875 0.125
vt 0.875 0.25
vt 0.75 0.25
vt 0.75 0.125
vt 0.875 0.125
vt 0.875 0.25
vt 0.75 0.25
vt 0.75 0.125
vt 0.875 0.125
vt 0.875 0.25
vt 0.75 0.25
vt 0.75 0.125
vt 0.875 0.125
vt 0.875 0.25
vt 0.75 0.25
vt 0.875 0.125
vt 0.875 0.25
vt 0.75 0.25
vt 0.75 0.125
vt 0.875 0.125
vt 0.875 0.25
vt 0.75 0.25
vt 0.75 0.125
vt 0.75 0.125
vt 0.875 0.125
vt 0.875 0.25
vt 0.75 0.25
vt 0.75 0.125
vt 0.875 0.125
vt 0.875 0.25
vt 0.75 0.25
vt 0.75 0.125
vt 0.875 0.125
vt 0.875 0.25
vt 0.75 0.25
vt 0.75 0.125
vt 0.875 0.125
vt 0.875 0.25
vt 0.75 0.25
vt 0.875 0.125
vt 0.875 0.25
vt 0.75 0.25
vt 0.75 0.125
vt 0.875 0.125
vt 0.875 0.25
vt 0.75 0.25
vt 0.75 0.125
vt 0.75 0.125
vt 0.875 0.125
vt 0.875 0.25
vt 0.75 0.25
vt 0.75 0.125
vt 0.875 0.125
vt 0.875 0.25
vt 0.75 0.25
vt 0.75 0.125
vt 0.875 0.125
vt 0.875 0.25
vt 0.75 0.25
vt 0.75 0.125
vt 0.875 0.125
vt 0.875 0.25
vt 0.75 0.25
vt 0.875 0.125
vt 0.875 0.25
vt 0.75 0.25
vt 0.75 0.125
vt 0.875 0.125
vt 0.875 0.25
vt 0.75 0.25
vt 0.75 0.125
vt 0.75 0.125
vt 0.875 0.125
vt 0.875 0.25
vt 0.75 0.25
vt 0.75 0.125
vt 0.875 0.125
vt 0.875 0.25
vt 0.75 0.25
vt 0.75 0.125
vt 0.875 0.125
vt 0.875 0.25
vt 0.75 0.25
vt 0.75 0.125
vt 0.875 0.125
vt 0.875 0.25
vt 0.75 0.25
vt 0.875 0.125
vt 0.875 0.25
vt 0.75 0.25
vt 0.75 0.125
vt 0.875 0.125
vt 0.875 0.25
vt 0.75 0.25
vt 0.75 0.125
vt 0.75 0.125
vt 0.875 0.125
vt 0.875 0.25
vt 0.75 0.25
vt 0.75 0.125
vt 0.875 0.125
vt 0.875 0.25
vt 0.75 0.25
vt 0.75 0.125
vt 0.875 0.125
vt 0.875 0.25
vt 0.75 0.25
vt 0.75 0.125
vt 0.875 0.125
vt 0.875 0.25
vt 0.75 0.25
vn 3.7781403928824057e-16 1 -4.087728302743278e-17
vn -0.7071067811865472 2.978128314787703e-16 0.7071067811865478
vn -4.373766055839946e-16 -1 1.620566025798485e-17
vn 3.9474596431116675e-16 1 0
vn -1 4.440892098500626e-16 0
vn -4.440892098500626e-16 -1 0
vn 3.7781403928824067e-16 1 4.087728302743269e-17
vn -0.7071067811865475 2.9781283147877034e-16 -0.7071067811865477
vn -4.373766055839947e-16 -1 -1.6205660257984736e-17
vn 4.765005303660322e-16 1 -4.7024165338530444e-32
vn 0 0 -1
vn -4.765005303660322e-16 -1 4.7024165338530444e-32
vn 3.7781403928824067e-16 1 -4.087728302743274e-17
vn 0.7071067811865475 -2.9781283147877034e-16 -0.7071067811865477
vn -3.7781403928824067e-16 -1 4.087728302743274e-17
vn 3.9474596431116685e-16 1 0
vn 1 0 0
vn -3.9474596431116675e-16 -1 1.8809666135412164e-31
vn 3.778140392882408e-16 1 4.087728302743238e-17
vn 0.7071067811865479 -2.9781283147877053e-16 0.7071067811865471
vn -3.7781403928824067e-16 -1 -4.087728302743246e-17
vn 4.765005303660319e-16 1 -1.8809666135412164e-31
vn 0 0 1
vn -4.765005303660319e-16 -1 1.8809666135412164e-31
vn 0 1 0
vn -2.2204460492503146e-16 -1 0
vn -1 1.7763568394002506e-16 0
vn 1 3.552713678800501e-16 0
vn 0 0 1
vn 0 0 -1
vn 0.5470295698977542 0.8191520442889918 0.17247776086975317
vn -0.5470295698977541 -0.8191520442889919 -0.1724777608697532
vn -0.781239189878474 0.5735764363510459 -0.24632377039348102
vn 0.7812391898784741 -0.5735764363510457 0.2463237703934812
vn -0.3007057995042727 -4.440892098500635e-16 0.953716950748227
vn 0.30070579950427334 2.0816681711721716e-17 -0.9537169507482268
vn 0.5686694104253474 0.8191520442889917 -0.07486674818404888
vn -0.5686694104253475 -0.8191520442889918 0.0748667481840488
vn -0.8121440849941728 0.5735764363510463 0.10692079719031317
vn 0.8121440849941729 -0.5735764363510462 -0.10692079719031308
vn 0.13052619222005132 4.024558464266198e-16 0.9914448613738105
vn -0.13052619222005105 -6.245004513516513e-17 -0.9914448613738105
vn 0.46984631039295394 0.819152044288992 -0.328989928337166
vn -0.46984631039295416 -0.8191520442889918 0.3289899283371657
vn -0.671010071662834 0.5735764363510462 0.4698463103929547
vn 0.6710100716628343 -0.5735764363510458 -0.46984631039295455
vn 0.5735764363510467 3.3306690738754765e-16 0.8191520442889916
vn -0.5735764363510465 5.55111512312579e-17 -0.8191520442889915
vn 0.2648481240693875 0.8191520442889919 -0.5087685126991368
vn -0.26484812406938796 -0.8191520442889918 0.5087685126991368
vn -0.3782423204790842 0.5735764363510463 0.7265967373044225
vn 0.37824232047908396 -0.5735764363510459 -0.7265967373044229
vn 0.8870108331782223 -3.3306690738754755e-16 0.46174861323503286
vn -0.8870108331782222 1.2490009027033026e-16 -0.4617486132350331
vn 0 0.8433914458128857 -0.537299608346824
vn 0 -0.8433914458128856 0.5372996083468243
vn 0 0.537299608346824 0.8433914458128858
vn 2.386089585234891e-16 -0.5372996083468238 -0.8433914458128859
vn 1 4.77217917046979e-16 7.490820815306938e-16
vn -1 0 0
vn -0.28678821817552397 0.8191520442889915 -0.49673176489215426
vn 0.286788218175524 -0.8191520442889916 0.4967317648921543
vn 0.40957602214449645 0.5735764363510467 0.7094064799162216
vn -0.4095760221444966 -0.5735764363510463 -0.709406479916222
vn 0.8660254037844382 2.2204460492503185e-16 -0.500000000000001
vn -0.8660254037844378 6.938893903907239e-18 0.5000000000000016
vn -0.09960050292505232 0.8191520442889912 0.5648625214636244
vn 0.09960050292505232 -0.819152044288991 -0.5648625214636245
vn 0.14224425972292515 0.5735764363510474 -0.8067072841115978
vn -0.14224425972292518 -0.573576436351047 0.8067072841115981
vn -0.9848077530122078 2.2204460492503175e-16 -0.1736481776669318
vn 0.984807753012208 -1.8388068845354182e-16 0.17364817766693175
vn -0.36868782649461285 0.8191520442889911 0.4393850417707057
vn 0.36868782649461285 -0.8191520442889911 -0.43938504177070575
vn 0.526540784518363 0.5735764363510467 -0.6275068715971329
vn -0.526540784518363 -0.5735764363510466 0.627506871597133
vn -0.7660444431189779 1.1102230246251585e-16 -0.6427876096865395
vn 0.766044443118978 -1.5265566588595922e-16 0.6427876096865394
vn -0.4837494599383121 0.8191520442889911 -0.3081823946083846
vn 0.4837494599383123 -0.8191520442889914 0.30818239460838437
vn 0.6908658269734734 0.5735764363510468 0.44013007257297526
vn -0.6908658269734734 -0.5735764363510466 -0.4401300725729753
vn 0.537299608346824 5.551115123125794e-17 -0.8433914458128856
vn -0.537299608346824 -9.020562075079413e-17 0.8433914458128858
vn -0.5713938048432701 0.8191520442889916 -0.04999048033273036
vn 0.5713938048432705 -0.8191520442889911 0.04999048033273025
vn 0.816034923451708 0.5735764363510468 0.07139380484326958
vn -0.816034923451708 -0.5735764363510466 -0.07139380484326978
vn 0.0871557427476583 1.387778780781448e-17 -0.9961946980917455
vn -0.08715574274765832 -8.500145032286363e-17 0.9961946980917455
vn -0.5299155298754951 0.8191520442889915 0.2194981993865552
vn 0.529915529875495 -0.8191520442889914 -0.21949819938655493
vn 0.7567978077333782 0.5735764363510466 -0.3134759159373913
vn -0.7567978077333783 -0.5735764363510466 0.3134759159373914
vn -0.3826834323650899 1.1102230246251583e-16 -0.9238795325112867
vn 0.38268343236509006 -1.5959455978986647e-16 0.9238795325112868
vn 0.1724777608697533 0.8191520442889914 0.5470295698977548
vn -0.17247776086975344 -0.8191520442889912 -0.5470295698977549
vn -0.24632377039348094 0.5735764363510466 -0.7812391898784734
vn 0.24632377039348105 -0.5735764363510464 0.7812391898784736
vn -0.9537169507482269 -1.110223024625159e-16 0.30070579950427334
vn 0.953716950748227 -5.551115123125789e-17 -0.3007057995042731
vn 0.40557978767263914 0.8191520442889917 0.4055797876726387
vn -0.4055797876726388 -0.8191520442889918 -0.405579787672639
vn -0.5792279653395696 0.5735764363510462 -0.579227965339569
vn 0.5792279653395696 -0.5735764363510459 0.5792279653395692
vn -0.7071067811865474 -1.6653345369377383e-16 0.7071067811865478
vn 0.707106781186547 1.6653345369377375e-16 -0.707106781186548
vn -0.483749459938312 0.8191520442889914 -0.3081823946083842
vn 0.483749459938313 -0.8191520442889908 0.30818239460838426
vn 0.6908658269734734 0.5735764363510468 0.44013007257297493
vn -0.6908658269734733 -0.5735764363510467 -0.4401300725729756
vn 0.5372996083468242 3.1086244689504495e-16 -0.8433914458128855
vn -0.5372996083468239 -1.998401444325286e-16 0.8433914458128857
vn -0.5713938048432704 0.8191520442889912 -0.04999048033273053
vn 0.5713938048432704 -0.8191520442889912 0.04999048033273036
vn 0.816034923451708 0.5735764363510468 0.07139380484326995
vn -0.816034923451708 -0.5735764363510468 -0.07139380484326958
vn 0.0871557427476583 8.881784197001273e-17 -0.9961946980917455
vn -0.08715574274765828 -7.771561172376111e-17 0.9961946980917455
vn -0.5299155298754948 0.8191520442889914 0.21949819938655504
vn 0.5299155298754948 -0.8191520442889911 -0.2194981993865559
vn 0.7567978077333783 0.5735764363510468 -0.3134759159373913
vn -0.7567978077333785 -0.5735764363510466 0.3134759159373913
vn -0.38268343236508984 8.881784197001277e-17 -0.9238795325112867
vn 0.3826834323650896 -2.4424906541753485e-16 0.9238795325112868
vn -0.3686878264946127 0.8191520442889915 0.4393850417707058
vn 0.3686878264946131 -0.8191520442889909 -0.43938504177070614
vn 0.5265407845183627 0.5735764363510468 -0.6275068715971329
vn -0.526540784518363 -0.5735764363510467 0.6275068715971329
vn -0.7660444431189782 8.881784197001281e-17 -0.6427876096865393
vn 0.7660444431189783 0 0.6427876096865393
vn -0.09960050292505228 0.8191520442889911 0.5648625214636244
vn 0.09960050292505238 -0.8191520442889908 -0.5648625214636248
vn 0.1422442597229251 0.5735764363510475 -0.8067072841115978
vn -0.14224425972292512 -0.5735764363510472 0.806707284111598
vn -0.9848077530122079 2.2204460492503215e-16 -0.17364817766693186
vn 0.984807753012208 -1.7763568394002545e-16 0.1736481776669317
vn 0.1724777608697529 0.8191520442889915 0.5470295698977548
vn -0.17247776086975333 -0.8191520442889915 -0.5470295698977546
vn -0.24632377039348033 0.5735764363510466 -0.7812391898784736
vn 0.24632377039348033 -0.5735764363510466 0.7812391898784738
vn -0.953716950748227 1.1102230246251597e-16 0.3007057995042731
vn 0.953716950748227 4.4408920985006394e-17 -0.30070579950427334
vn 0.40557978767263847 0.8191520442889925 0.40557978767263797
vn -0.4055797876726396 -0.8191520442889916 -0.4055797876726386
vn -0.5792279653395696 0.573576436351046 -0.5792279653395689
vn 0.5792279653395697 -0.5735764363510459 0.5792279653395689
vn -0.7071067811865475 4.440892098500641e-17 0.7071067811865476
vn 0.7071067811865475 -4.440892098500638e-17 -0.7071067811865476
vn 0.5470295698977539 0.819152044288992 0.17247776086975283
vn -0.5470295698977545 -0.8191520442889916 -0.172477760869753
vn -0.7812391898784741 0.5735764363510462 -0.24632377039348086
vn 0.7812391898784741 -0.5735764363510458 0.24632377039348122
vn -0.30070579950427345 4.662936703425671e-16 0.9537169507482268
vn 0.30070579950427356 -8.881784197001274e-17 -0.9537169507482269
vn 0.568669410425347 0.8191520442889921 -0.07486674818404851
vn -0.5686694104253475 -0.8191520442889916 0.07486674818404884
vn -0.8121440849941728 0.5735764363510465 0.10692079719031272
vn 0.8121440849941729 -0.5735764363510463 -0.10692079719031272
vn 0.13052619222005135 1.887379141862772e-16 0.9914448613738106
vn -0.13052619222005135 -1.776356839400255e-16 -0.9914448613738106
vn 0.4698463103929548 0.8191520442889915 -0.328989928337166
vn -0.4698463103929543 -0.8191520442889917 0.32898992833716584
vn -0.6710100716628346 0.573576436351046 0.46984631039295427
vn 0.6710100716628343 -0.5735764363510459 -0.4698463103929546
vn 0.5735764363510467 -1.7763568394002545e-16 0.8191520442889914
vn -0.5735764363510459 -3.3306690738754775e-16 -0.8191520442889921
vn 0.2648481240693875 0.819152044288992 -0.5087685126991367
vn -0.26484812406938757 -0.819152044288992 0.5087685126991365
vn -0.3782423204790842 0.5735764363510462 0.7265967373044225
vn 0.37824232047908424 -0.5735764363510459 -0.7265967373044228
vn 0.8870108331782223 -4.440892098500639e-17 0.46174861323503313
vn -0.8870108331782223 3.99680288865057e-16 -0.4617486132350328
vn 0 0.8433914458128856 -0.537299608346824
vn 3.330669073875473e-16 -0.8433914458128856 0.5372996083468241
vn 0 0.5372996083468239 0.8433914458128857
vn 3.7454104076534607e-16 -0.5372996083468238 -0.8433914458128859
vn 1 0 0
vn -1 0 0
vn -0.28678821817552375 0.8191520442889918 -0.49673176489215376
vn 0.28678821817552363 -0.8191520442889914 0.4967317648921546
vn 0.4095760221444967 0.5735764363510466 0.7094064799162216
vn -0.40957602214449634 -0.5735764363510465 -0.7094064799162219
vn 0.8660254037844383 6.2172489379009e-16 -0.5000000000000007
vn -0.8660254037844384 -5.329070518200766e-16 0.5000000000000004
usemtl m_9e478d68-de35-001b-27ce-acebe04716ba
f 1/1/1 2/2/1 3/3/1
f 2/4/2 1/5/2 4/6/2 5/7/2
f 5/8/3 4/9/3 6/10/3
f 7/11/4 1/12/4 3/13/4
f 1/14/5 7/15/5 8/16/5 4/17/5
f 4/18/6 8/19/6 6/20/6
f 9/21/7 7/22/7 3/23/7
f 7/24/8 9/25/8 10/26/8 8/27/8
f 8/28/9 10/29/9 6/30/9
f 11/31/10 9/32/10 3/33/10
f 9/34/11 11/35/11 12/36/11 10/37/11
f 10/38/12 12/39/12 6/40/12
f 13/41/13 11/42/13 3/43/13
f 11/44/14 13/45/14 14/46/14 12/47/14
f 12/48/15 14/49/15 6/50/15
f 15/51/16 13/52/16 3/53/16
f 13/54/17 15/55/17 16/56/17 14/57/17
f 14/58/18 16/59/18 6/60/18
f 17/61/19 15/62/19 3/63/19
f 15/64/20 17/65/20 18/66/20 16/67/20
f 16/68/21 18/69/21 6/70/21
f 2/71/22 17/72/22 3/73/22
f 17/74/23 2/75/23 5/76/23 18/77/23
f 18/78/24 5/79/24 6/80/24
f 19/81/25 20/82/25 21/83/25 22/84/25
f 23/85/26 24/86/26 25/87/26 26/88/26
f 21/89/27 20/90/27 25/91/27 24/92/27
f 19/93/28 22/94/28 23/95/28 26/96/28
f 22/97/29 21/98/29 24/99/29 23/100/29
f 26/101/30 25/102/30 20/103/30 19/104/30
f 27/105/31 28/106/31 29/107/31 30/108/31
f 31/109/32 32/110/32 33/111/32 34/112/32
f 29/113/33 28/114/33 33/115/33 32/116/33
f 27/117/34 30/118/34 31/119/34 34/120/34
f 30/121/35 29/122/35 32/123/35 31/124/35
f 34/125/36 33/126/36 28/127/36 27/128/36
f 35/129/37 36/130/37 37/131/37 38/132/37
f 39/133/38 40/134/38 41/135/38 42/136/38
f 37/137/39 36/138/39 41/139/39 40/140/39
f 35/141/40 38/142/40 39/143/40 42/144/40
f 38/145/41 37/146/41 40/147/41 39/148/41
f 42/149/42 41/150/42 36/151/42 35/152/42
f 43/153/43 44/154/43 45/155/43 46/156/43
f 47/157/44 48/158/44 49/159/44 50/160/44
f 45/161/45 44/162/45 49/163/45 48/164/45
f 43/165/46 46/166/46 47/167/46 50/168/46
f 46/169/47 45/170/47 48/171/47 47/172/47
f 50/173/48 49/174/48 44/175/48 43/176/48
f 51/177/49 52/178/49 53/179/49 54/180/49
f 55/181/50 56/182/50 57/183/50 58/184/50
f 53/185/51 52/186/51 57/187/51 56/188/51
f 51/189/52 54/190/52 55/191/52 58/192/52
f 54/193/53 53/194/53 56/195/53 55/196/53
f 58/197/54 57/198/54 52/199/54 51/200/54
f 59/201/55 60/202/55 61/203/55 62/204/55
f 63/205/56 64/206/56 65/207/56 66/208/56
f 61/209/57 60/210/57 65/211/57 64/212/57
f 59/213/58 62/214/58 63/215/58 66/216/58
f 62/217/59 61/218/59 64/219/59 63/220/59
f 66/221/60 65/222/60 60/223/60 59/224/60
f 67/225/61 68/226/61 69/227/61 70/228/61
f 71/229/62 72/230/62 73/231/62 74/232/62
f 69/233/63 68/234/63 73/235/63 72/236/63
f 67/237/64 70/238/64 71/239/64 74/240/64
f 70/241/65 69/242/65 72/243/65 71/244/65
f 74/245/66 73/246/66 68/247/66 67/248/66
f 75/249/67 76/250/67 77/251/67 78/252/67
f 79/253/68 80/254/68 81/255/68 82/256/68
f 77/257/69 76/258/69 81/259/69 80/260/69
f 75/261/70 78/262/70 79/263/70 82/264/70
f 78/265/71 77/266/71 80/267/71 79/268/71
f 82/269/72 81/270/72 76/271/72 75/272/72
f 83/273/73 84/274/73 85/275/73 86/276/73
f 87/277/74 88/278/74 89/279/74 90/280/74
f 85/281/75 84/282/75 89/283/75 88/284/75
f 83/285/76 86/286/76 87/287/76 90/288/76
f 86/289/77 85/290/77 88/291/77 87/292/77
f 90/293/78 89/294/78 84/295/78 83/296/78
f 91/297/79 92/298/79 93/299/79 94/300/79
f 95/301/80 96/302/80 97/303/80 98/304/80
f 93/305/81 92/306/81 97/307/81 96/308/81
f 91/309/82 94/310/82 95/311/82 98/312/82
f 94/313/83 93/314/83 96/315/83 95/316/83
f 98/317/84 97/318/84 92/319/84 91/320/84
f 99/321/85 100/322/85 101/323/85 102/324/85
f 103/325/86 104/326/86 105/327/86 106/328/86
f 101/329/87 100/330/87 105/331/87 104/332/87
f 99/333/88 102/334/88 103/335/88 106/336/88
f 102/337/89 101/338/89 104/339/89 103/340/89
f 106/341/90 105/342/90 100/343/90 99/344/90
f 107/345/91 108/346/91 109/347/91 110/348/91
f 111/349/92 112/350/92 113/351/92 114/352/92
f 109/353/93 108/354/93 113/355/93 112/356/93
f 107/357/94 110/358/94 111/359/94 114/360/94
f 110/361/95 109/362/95 112/363/95 111/364/95
f 114/365/96 113/366/96 108/367/96 107/368/96
f 115/369/97 116/370/97 117/371/97 118/372/97
f 119/373/98 120/374/98 121/375/98 122/376/98
f 117/377/99 116/378/99 121/379/99 120/380/99
f 115/381/100 118/382/100 119/383/100 122/384/100
f 118/385/101 117/386/101 120/387/101 119/388/101
f 122/389/102 121/390/102 116/391/102 115/392/102
f 123/393/103 124/394/103 125/395/103 126/396/103
f 127/397/104 128/398/104 129/399/104 130/400/104
f 125/401/105 124/402/105 129/403/105 128/404/105
f 123/405/106 126/406/106 127/407/106 130/408/106
f 126/409/107 125/410/107 128/411/107 127/412/107
f 130/413/108 129/414/108 124/415/108 123/416/108
f 131/417/109 132/418/109 133/419/109 134/420/109
f 135/421/110 136/422/110 137/423/110 138/424/110
f 133/425/111 132/426/111 137/427/111 136/428/111
f 131/429/112 134/430/112 135/431/112 138/432/112
f 134/433/113 133/434/113 136/435/113 135/436/113
f 138/437/114 137/438/114 132/439/114 131/440/114
f 139/441/115 140/442/115 141/443/115 142/444/115
f 143/445/116 144/446/116 145/447/116 146/448/116
f 141/449/117 140/450/117 145/451/117 144/452/117
f 139/453/118 142/454/118 143/455/118 146/456/118
f 142/457/119 141/458/119 144/459/119 143/460/119
f 146/461/120 145/462/120 140/463/120 139/464/120
f 147/465/121 148/466/121 149/467/121 150/468/121
f 151/469/122 152/470/122 153/471/122 154/472/122
f 149/473/123 148/474/123 153/475/123 152/476/123
f 147/477/124 150/478/124 151/479/124 154/480/124
f 150/481/125 149/482/125 152/483/125 151/484/125
f 154/485/126 153/486/126 148/487/126 147/488/126
f 155/489/127 156/490/127 157/491/127 158/492/127
f 159/493/128 160/494/128 161/495/128 162/496/128
f 157/497/129 156/498/129 161/499/129 160/500/129
f 155/501/130 158/502/130 159/503/130 162/504/130
f 158/505/131 157/506/131 160/507/131 159/508/131
f 162/509/132 161/510/132 156/511/132 155/512/132
f 163/513/133 164/514/133 165/515/133 166/516/133
f 167/517/134 168/518/134 169/519/134 170/520/134
f 165/521/135 164/522/135 169/523/135 168/524/135
f 163/525/136 166/526/136 167/527/136 170/528/136
f 166/529/137 165/530/137 168/531/137 167/532/137
f 170/533/138 169/534/138 164/535/138 163/536/138
f 171/537/139 172/538/139 173/539/139 174/540/139
f 175/541/140 176/542/140 177/543/140 178/544/140
f 173/545/141 172/546/141 177/547/141 176/548/141
f 171/549/142 174/550/142 175/551/142 178/552/142
f 174/553/143 173/554/143 176/555/143 175/556/143
f 178/557/144 177/558/144 172/559/144 171/560/144
f 179/561/145 180/562/145 181/563/145 182/564/145
f 183/565/146 184/566/146 185/567/146 186/568/146
f 181/569/147 180/570/147 185/571/147 184/572/147
f 179/573/148 182/574/148 183/575/148 186/576/148
f 182/577/149 181/578/149 184/579/149 183/580/149
f 186/581/150 185/582/150 180/583/150 179/584/150
f 187/585/151 188/586/151 189/587/151 190/588/151
f 191/589/152 192/590/152 193/591/152 194/592/152
f 189/593/153 188/594/153 193/595/153 192/596/153
f 187/597/154 190/598/154 191/599/154 194/600/154
f 190/601/155 189/602/155 192/603/155 191/604/155
f 194/605/156 193/606/156 188/607/156 187/608/156
f 195/609/157 196/610/157 197/611/157 198/612/157
f 199/613/158 200/614/158 201/615/158 202/616/158
f 197/617/159 196/618/159 201/619/159 200/620/159
f 195/621/160 198/622/160 199/623/160 202/624/160
f 198/625/161 197/626/161 200/627/161 199/628/161
f 202/629/162 201/630/162 196/631/162 195/632/162
f 203/633/163 204/634/163 205/635/163 206/636/163
f 207/637/164 208/638/164 209/639/164 210/640/164
f 205/641/165 204/642/165 209/643/165 208/644/165
f 203/645/166 206/646/166 207/647/166 210/648/166
f 206/649/167 205/650/167 208/651/167 207/652/167
f 210/653/168 209/654/168 204/655/168 203/656/168
f 211/657/169 212/658/169 213/659/169 214/660/169
f 215/661/170 216/662/170 217/663/170 218/664/170
f 213/665/171 212/666/171 217/667/171 216/668/171
f 211/669/172 214/670/172 215/671/172 218/672/172
f 214/673/173 213/674/173 216/675/173 215/676/173
f 218/677/174 217/678/174 212/679/174 211/680/174
f 219/681/175 220/682/175 221/683/175 222/684/175
f 223/685/176 224/686/176 225/687/176 226/688/176
f 221/689/177 220/690/177 225/691/177 224/692/177
f 219/693/178 222/694/178 223/695/178 226/696/178
f 222/697/179 221/698/179 224/699/179 223/700/179
f 226/701/180 225/702/180 220/703/180 219/704/180
f 227/705/181 228/706/181 229/707/181 230/708/181
f 231/709/182 232/710/182 233/711/182 234/712/182
f 229/713/183 228/714/183 233/715/183 232/716/183
f 227/717/184 230/718/184 231/719/184 234/720/184
f 230/721/185 229/722/185 232/723/185 231/724/185
f 234/725/186 233/726/186 228/727/186 227/728/186
o cube
v 0.6250000000000002 0.9374999999999991 0.625
v 0.6250000000000002 0.9374999999999991 0.375
v 0.6250000000000002 0.06249999999999911 0.625
v 0.6250000000000002 0.06249999999999911 0.375
v 0.3750000000000002 0.9374999999999991 0.375
v 0.3750000000000002 0.9374999999999991 0.625
v 0.3750000000000002 0.06249999999999911 0.375
v 0.3750000000000002 0.06249999999999911 0.625
vt 0.375 1
vt 0.625 1
vt 0.625 0
vt 0.375 0
vt 0.375 1
vt 0.625 1
vt 0.625 0
vt 0.375 0
vt 0.375 1
vt 0.625 1
vt 0.625 0
vt 0.375 0
vt 0.375 1
vt 0.625 1
vt 0.625 0
vt 0.375 0
vt 0.375 0.625
vt 0.625 0.625
vt 0.625 0.375
vt 0.375 0.375
vt 0.375 0.625
vt 0.625 0.625
vt 0.625 0.375
vt 0.375 0.375
vn 0 0 -1
vn 1 0 0
vn 0 0 1
vn -1 0 0
vn 0 1 0
vn 0 -1 0
usemtl m_cba66042-0092-6872-283d-0da9093b44a5
f 238/732/187 241/731/187 239/730/187 236/729/187
f 237/736/188 238/735/188 236/734/188 235/733/188
f 242/740/189 237/739/189 235/738/189 240/737/189
f 241/744/190 242/743/190 240/742/190 239/741/190
usemtl m_013fc267-03e9-9e72-3204-4099646e4f8a
f 240/748/191 235/747/191 236/746/191 239/745/191
f 241/752/192 238/751/192 237/750/192 242/749/192